<?xml version="1.0" encoding="UTF-8" standalone="no"?>
<!DOCTYPE svg PUBLIC "-//W3C//DTD SVG 1.1//EN"
 "http://www.w3.org/Graphics/SVG/1.1/DTD/svg11.dtd">
<!-- Generated by graphviz version 2.43.0 (0)
 -->
<!-- Title: CampusTrade Pages: 1 -->
<svg width="1502pt" height="1273pt"
 viewBox="0.00 0.00 1502.00 1273.00" xmlns="http://www.w3.org/2000/svg" xmlns:xlink="http://www.w3.org/1999/xlink">
<g id="graph0" class="graph" transform="scale(1 1) rotate(0) translate(4 1269)">
<title>CampusTrade</title>
<polygon fill="white" stroke="transparent" points="-4,4 -4,-1269 1498,-1269 1498,4 -4,4"/>
<g id="clust1" class="cluster">
<title>cluster_system</title>
<polygon fill="none" stroke="gray" stroke-dasharray="5,2" points="8,-8 8,-1257 1486,-1257 1486,-8 8,-8"/>
<text text-anchor="middle" x="747" y="-1241.8" font-family="Arial" font-size="14.00">CampusTrade System</text>
</g>
<g id="clust2" class="cluster">
<title>cluster_user_management</title>
<polygon fill="lightgray" stroke="lightgray" points="1044,-637 1044,-1226 1478,-1226 1478,-637 1044,-637"/>
<text text-anchor="middle" x="1261" y="-1210.8" font-family="Arial" font-size="14.00">User Management</text>
</g>
<g id="clust3" class="cluster">
<title>cluster_product_management</title>
<polygon fill="lightgray" stroke="lightgray" points="478,-29 478,-818 942,-818 942,-29 478,-29"/>
<text text-anchor="middle" x="710" y="-802.8" font-family="Arial" font-size="14.00">Product Management</text>
</g>
<g id="clust4" class="cluster">
<title>cluster_transaction_management</title>
<polygon fill="lightgray" stroke="lightgray" points="16,-16 16,-210 470,-210 470,-16 16,-16"/>
<text text-anchor="middle" x="243" y="-194.8" font-family="Arial" font-size="14.00">Transaction Management</text>
</g>
<g id="clust5" class="cluster">
<title>cluster_analytics</title>
<polygon fill="lightgray" stroke="lightgray" points="405,-993 405,-1148 613,-1148 613,-993 405,-993"/>
<text text-anchor="middle" x="509" y="-1132.8" font-family="Arial" font-size="14.00">Analytics</text>
</g>
<!-- member -->
<g id="node1" class="node">
<title>member</title>
<path fill="none" stroke="black" d="M1064,-923.5C1064,-923.5 1226,-923.5 1226,-923.5 1232,-923.5 1238,-929.5 1238,-935.5 1238,-935.5 1238,-1182.5 1238,-1182.5 1238,-1188.5 1232,-1194.5 1226,-1194.5 1226,-1194.5 1064,-1194.5 1064,-1194.5 1058,-1194.5 1052,-1188.5 1052,-1182.5 1052,-1182.5 1052,-935.5 1052,-935.5 1052,-929.5 1058,-923.5 1064,-923.5"/>
<text text-anchor="middle" x="1145" y="-1180.9" font-family="Arial" font-size="12.00">Member</text>
<polyline fill="none" stroke="black" points="1052,-1173.5 1238,-1173.5 "/>
<text text-anchor="start" x="1060" y="-1159.9" font-family="Arial" font-size="12.00">+ Member_ID : INT</text>
<text text-anchor="start" x="1060" y="-1146.9" font-family="Arial" font-size="12.00">+ Name : VARCHAR(100)</text>
<text text-anchor="start" x="1060" y="-1133.9" font-family="Arial" font-size="12.00">+ Email : VARCHAR(255)</text>
<text text-anchor="start" x="1060" y="-1120.9" font-family="Arial" font-size="12.00">+ Password : VARCHAR(255)</text>
<text text-anchor="start" x="1060" y="-1107.9" font-family="Arial" font-size="12.00">+ Contact_No : VARCHAR(15)</text>
<text text-anchor="start" x="1060" y="-1094.9" font-family="Arial" font-size="12.00">+ Age : INT</text>
<text text-anchor="start" x="1060" y="-1081.9" font-family="Arial" font-size="12.00">+ Profile_Image : LONGBLOB</text>
<text text-anchor="start" x="1060" y="-1068.9" font-family="Arial" font-size="12.00">+ Role : ENUM</text>
<text text-anchor="start" x="1060" y="-1055.9" font-family="Arial" font-size="12.00">+ Registered_On : TIMESTAMP</text>
<polyline fill="none" stroke="black" points="1052,-1048.5 1238,-1048.5 "/>
<text text-anchor="start" x="1060" y="-1034.9" font-family="Arial" font-size="12.00">+ register()</text>
<text text-anchor="start" x="1060" y="-1021.9" font-family="Arial" font-size="12.00">+ login()</text>
<text text-anchor="start" x="1060" y="-1008.9" font-family="Arial" font-size="12.00">+ updateProfile()</text>
<text text-anchor="start" x="1060" y="-995.9" font-family="Arial" font-size="12.00">+ changePassword()</text>
<text text-anchor="start" x="1060" y="-982.9" font-family="Arial" font-size="12.00">+ listProduct()</text>
<text text-anchor="start" x="1060" y="-969.9" font-family="Arial" font-size="12.00">+ buyProduct()</text>
<text text-anchor="start" x="1060" y="-956.9" font-family="Arial" font-size="12.00">+ rateUser()</text>
<text text-anchor="start" x="1060" y="-943.9" font-family="Arial" font-size="12.00">+ fileComplaint()</text>
<text text-anchor="start" x="1060" y="-930.9" font-family="Arial" font-size="12.00">+ searchProducts()</text>
</g>
<!-- product_listing -->
<g id="node3" class="node">
<title>product_listing</title>
<path fill="none" stroke="black" d="M569,-302.5C569,-302.5 731,-302.5 731,-302.5 737,-302.5 743,-308.5 743,-314.5 743,-314.5 743,-509.5 743,-509.5 743,-515.5 737,-521.5 731,-521.5 731,-521.5 569,-521.5 569,-521.5 563,-521.5 557,-515.5 557,-509.5 557,-509.5 557,-314.5 557,-314.5 557,-308.5 563,-302.5 569,-302.5"/>
<text text-anchor="middle" x="650" y="-507.9" font-family="Arial" font-size="12.00">ProductListing</text>
<polyline fill="none" stroke="black" points="557,-500.5 743,-500.5 "/>
<text text-anchor="start" x="565" y="-486.9" font-family="Arial" font-size="12.00">+ Product_ID : INT</text>
<text text-anchor="start" x="565" y="-473.9" font-family="Arial" font-size="12.00">+ Seller_ID : INT</text>
<text text-anchor="start" x="565" y="-460.9" font-family="Arial" font-size="12.00">+ Title : VARCHAR(255)</text>
<text text-anchor="start" x="565" y="-447.9" font-family="Arial" font-size="12.00">+ Description : TEXT</text>
<text text-anchor="start" x="565" y="-434.9" font-family="Arial" font-size="12.00">+ Price : DECIMAL(10,2)</text>
<text text-anchor="start" x="565" y="-421.9" font-family="Arial" font-size="12.00">+ Category_ID : INT</text>
<text text-anchor="start" x="565" y="-408.9" font-family="Arial" font-size="12.00">+ Condition_ : ENUM</text>
<text text-anchor="start" x="565" y="-395.9" font-family="Arial" font-size="12.00">+ Image_URL : VARCHAR(255)</text>
<text text-anchor="start" x="565" y="-382.9" font-family="Arial" font-size="12.00">+ Listed_On : TIMESTAMP</text>
<polyline fill="none" stroke="black" points="557,-375.5 743,-375.5 "/>
<text text-anchor="start" x="565" y="-361.9" font-family="Arial" font-size="12.00">+ createListing()</text>
<text text-anchor="start" x="565" y="-348.9" font-family="Arial" font-size="12.00">+ updateListing()</text>
<text text-anchor="start" x="565" y="-335.9" font-family="Arial" font-size="12.00">+ removeListing()</text>
<text text-anchor="start" x="565" y="-322.9" font-family="Arial" font-size="12.00">+ getSellerInfo()</text>
<text text-anchor="start" x="565" y="-309.9" font-family="Arial" font-size="12.00">+ getCategory()</text>
</g>
<!-- member&#45;&gt;product_listing -->
<g id="edge1" class="edge">
<title>member&#45;&gt;product_listing</title>
<path fill="none" stroke="#000000" stroke-width="3" d="M1051.97,-1035.58C927.79,-1004.41 702.02,-943.32 517,-869 470.7,-850.4 449.86,-855.54 417,-818 342.39,-732.76 278.24,-672.85 337,-576 382.39,-501.18 474.57,-459.11 547.2,-436.53"/>
<polygon fill="#000000" stroke="#000000" stroke-width="3" points="548.3,-439.86 556.86,-433.61 546.27,-433.16 548.3,-439.86"/>
<text text-anchor="middle" x="437" y="-718.8" font-family="Arial Bold" font-size="14.00" fill="#000000"> Lists </text>
<text text-anchor="middle" x="542.25" y="-426.5" font-family="Arial Bold" font-size="14.00" fill="#000000"> * </text>
<text text-anchor="middle" x="1041.23" y="-1021.41" font-family="Arial Bold" font-size="14.00" fill="#000000"> 1 </text>
</g>
<!-- transaction_listing -->
<g id="node4" class="node">
<title>transaction_listing</title>
<path fill="none" stroke="black" d="M274,-24.5C274,-24.5 450,-24.5 450,-24.5 456,-24.5 462,-30.5 462,-36.5 462,-36.5 462,-166.5 462,-166.5 462,-172.5 456,-178.5 450,-178.5 450,-178.5 274,-178.5 274,-178.5 268,-178.5 262,-172.5 262,-166.5 262,-166.5 262,-36.5 262,-36.5 262,-30.5 268,-24.5 274,-24.5"/>
<text text-anchor="middle" x="362" y="-164.9" font-family="Arial" font-size="12.00">TransactionListing</text>
<polyline fill="none" stroke="black" points="262,-157.5 462,-157.5 "/>
<text text-anchor="start" x="270" y="-143.9" font-family="Arial" font-size="12.00">+ Transaction_ID : INT</text>
<text text-anchor="start" x="270" y="-130.9" font-family="Arial" font-size="12.00">+ Buyer_ID : INT</text>
<text text-anchor="start" x="270" y="-117.9" font-family="Arial" font-size="12.00">+ Seller_ID : INT</text>
<text text-anchor="start" x="270" y="-104.9" font-family="Arial" font-size="12.00">+ Product_ID : INT</text>
<text text-anchor="start" x="270" y="-91.9" font-family="Arial" font-size="12.00">+ Payment_Method : ENUM</text>
<text text-anchor="start" x="270" y="-78.9" font-family="Arial" font-size="12.00">+ Transaction_Date : TIMESTAMP</text>
<polyline fill="none" stroke="black" points="262,-71.5 462,-71.5 "/>
<text text-anchor="start" x="270" y="-57.9" font-family="Arial" font-size="12.00">+ createTransaction()</text>
<text text-anchor="start" x="270" y="-44.9" font-family="Arial" font-size="12.00">+ getTransactionDetails()</text>
<text text-anchor="start" x="270" y="-31.9" font-family="Arial" font-size="12.00">+ updatePaymentStatus()</text>
</g>
<!-- member&#45;&gt;transaction_listing -->
<g id="edge2" class="edge">
<title>member&#45;&gt;transaction_listing</title>
<path fill="none" stroke="#000000" stroke-width="3" d="M1051.72,-1033C834.48,-974.58 312.24,-832.94 300,-818 151.27,-636.43 254.79,-335.02 320.01,-188.18"/>
<polygon fill="#000000" stroke="#000000" stroke-width="3" points="323.35,-189.29 324.25,-178.74 316.96,-186.43 323.35,-189.29"/>
<text text-anchor="middle" x="243.5" y="-579.8" font-family="Arial Bold" font-size="14.00" fill="#000000"> Buys </text>
<text text-anchor="middle" x="312.09" y="-183.82" font-family="Arial Bold" font-size="14.00" fill="#000000"> * </text>
<text text-anchor="middle" x="1041.12" y="-1018.68" font-family="Arial Bold" font-size="14.00" fill="#000000"> 1 </text>
</g>
<!-- member&#45;&gt;transaction_listing -->
<g id="edge3" class="edge">
<title>member&#45;&gt;transaction_listing</title>
<path fill="none" stroke="#000000" stroke-width="3" d="M1051.78,-1030.85C874.61,-978.44 503.34,-864.41 464,-818 397.75,-739.86 432.92,-693.05 424,-591 417.05,-511.5 475.72,-309.19 452,-233 447.12,-217.33 439.63,-201.88 431.02,-187.4"/>
<polygon fill="#000000" stroke="#000000" stroke-width="3" points="433.76,-185.18 425.52,-178.52 427.8,-188.86 433.76,-185.18"/>
<text text-anchor="middle" x="444" y="-579.8" font-family="Arial Bold" font-size="14.00" fill="#000000"> Sells </text>
<text text-anchor="middle" x="425.97" y="-189.81" font-family="Arial Bold" font-size="14.00" fill="#000000"> * </text>
<text text-anchor="middle" x="1041.47" y="-1016.25" font-family="Arial Bold" font-size="14.00" fill="#000000"> 1 </text>
</g>
<!-- credit_logs -->
<g id="node5" class="node">
<title>credit_logs</title>
<path fill="none" stroke="black" d="M36,-37.5C36,-37.5 192,-37.5 192,-37.5 198,-37.5 204,-43.5 204,-49.5 204,-49.5 204,-153.5 204,-153.5 204,-159.5 198,-165.5 192,-165.5 192,-165.5 36,-165.5 36,-165.5 30,-165.5 24,-159.5 24,-153.5 24,-153.5 24,-49.5 24,-49.5 24,-43.5 30,-37.5 36,-37.5"/>
<text text-anchor="middle" x="114" y="-151.9" font-family="Arial" font-size="12.00">CreditLogs</text>
<polyline fill="none" stroke="black" points="24,-144.5 204,-144.5 "/>
<text text-anchor="start" x="32" y="-130.9" font-family="Arial" font-size="12.00">+ Credit_ID : INT</text>
<text text-anchor="start" x="32" y="-117.9" font-family="Arial" font-size="12.00">+ Member_ID : INT</text>
<text text-anchor="start" x="32" y="-104.9" font-family="Arial" font-size="12.00">+ Balance : DECIMAL(10,2)</text>
<polyline fill="none" stroke="black" points="24,-97.5 204,-97.5 "/>
<text text-anchor="start" x="32" y="-83.9" font-family="Arial" font-size="12.00">+ addCredits()</text>
<text text-anchor="start" x="32" y="-70.9" font-family="Arial" font-size="12.00">+ deductCredits()</text>
<text text-anchor="start" x="32" y="-57.9" font-family="Arial" font-size="12.00">+ getBalance()</text>
<text text-anchor="start" x="32" y="-44.9" font-family="Arial" font-size="12.00">+ updateBalance()</text>
</g>
<!-- member&#45;&gt;credit_logs -->
<g id="edge4" class="edge">
<title>member&#45;&gt;credit_logs</title>
<path fill="none" stroke="#000000" stroke-width="3" d="M1051.63,-1032.79C948.07,-1005.04 775.93,-959.51 627,-923 522.92,-897.48 495.79,-895.69 392,-869 311.89,-848.4 268,-879.78 213,-818 51.06,-636.09 77.85,-318.39 100.22,-175.63"/>
<polygon fill="#000000" stroke="#000000" stroke-width="3" points="103.69,-176.08 101.82,-165.66 96.78,-174.98 103.69,-176.08"/>
<text text-anchor="middle" x="119.5" y="-579.8" font-family="Arial Bold" font-size="14.00" fill="#000000"> Has </text>
<text text-anchor="middle" x="92.35" y="-173.59" font-family="Arial Bold" font-size="14.00" fill="#000000"> 1 </text>
<text text-anchor="middle" x="1041.02" y="-1018.49" font-family="Arial Bold" font-size="14.00" fill="#000000"> 1 </text>
</g>
<!-- wishlist -->
<g id="node6" class="node">
<title>wishlist</title>
<path fill="none" stroke="black" d="M665,-37.5C665,-37.5 821,-37.5 821,-37.5 827,-37.5 833,-43.5 833,-49.5 833,-49.5 833,-153.5 833,-153.5 833,-159.5 827,-165.5 821,-165.5 821,-165.5 665,-165.5 665,-165.5 659,-165.5 653,-159.5 653,-153.5 653,-153.5 653,-49.5 653,-49.5 653,-43.5 659,-37.5 665,-37.5"/>
<text text-anchor="middle" x="743" y="-151.9" font-family="Arial" font-size="12.00">Wishlist</text>
<polyline fill="none" stroke="black" points="653,-144.5 833,-144.5 "/>
<text text-anchor="start" x="661" y="-130.9" font-family="Arial" font-size="12.00">+ Wishlist_ID : INT</text>
<text text-anchor="start" x="661" y="-117.9" font-family="Arial" font-size="12.00">+ Member_ID : INT</text>
<text text-anchor="start" x="661" y="-104.9" font-family="Arial" font-size="12.00">+ Product_ID : INT</text>
<text text-anchor="start" x="661" y="-91.9" font-family="Arial" font-size="12.00">+ Added_On : TIMESTAMP</text>
<polyline fill="none" stroke="black" points="653,-84.5 833,-84.5 "/>
<text text-anchor="start" x="661" y="-70.9" font-family="Arial" font-size="12.00">+ addToWishlist()</text>
<text text-anchor="start" x="661" y="-57.9" font-family="Arial" font-size="12.00">+ removeFromWishlist()</text>
<text text-anchor="start" x="661" y="-44.9" font-family="Arial" font-size="12.00">+ getWishlistItems()</text>
</g>
<!-- member&#45;&gt;wishlist -->
<g id="edge5" class="edge">
<title>member&#45;&gt;wishlist</title>
<path fill="none" stroke="#000000" stroke-width="3" d="M1072.03,-923.23C1054.92,-889.34 1037.49,-852.73 1023,-818 990.37,-739.78 992.48,-716.46 963,-637 900.97,-469.82 819.05,-277.19 774.74,-175"/>
<polygon fill="#000000" stroke="#000000" stroke-width="3" points="777.9,-173.47 770.71,-165.69 771.48,-176.26 777.9,-173.47"/>
<text text-anchor="middle" x="973.5" y="-579.8" font-family="Arial Bold" font-size="14.00" fill="#000000"> Adds To </text>
<text text-anchor="middle" x="769" y="-176.9" font-family="Arial Bold" font-size="14.00" fill="#000000"> * </text>
<text text-anchor="middle" x="1072.91" y="-904.56" font-family="Arial Bold" font-size="14.00" fill="#000000"> 1 </text>
</g>
<!-- reviews_ratings -->
<g id="node7" class="node">
<title>reviews_ratings</title>
<path fill="none" stroke="black" d="M1064,-645.5C1064,-645.5 1220,-645.5 1220,-645.5 1226,-645.5 1232,-651.5 1232,-657.5 1232,-657.5 1232,-787.5 1232,-787.5 1232,-793.5 1226,-799.5 1220,-799.5 1220,-799.5 1064,-799.5 1064,-799.5 1058,-799.5 1052,-793.5 1052,-787.5 1052,-787.5 1052,-657.5 1052,-657.5 1052,-651.5 1058,-645.5 1064,-645.5"/>
<text text-anchor="middle" x="1142" y="-785.9" font-family="Arial" font-size="12.00">ReviewsRatings</text>
<polyline fill="none" stroke="black" points="1052,-778.5 1232,-778.5 "/>
<text text-anchor="start" x="1060" y="-764.9" font-family="Arial" font-size="12.00">+ Review_ID : INT</text>
<text text-anchor="start" x="1060" y="-751.9" font-family="Arial" font-size="12.00">+ Reviewer_ID : INT</text>
<text text-anchor="start" x="1060" y="-738.9" font-family="Arial" font-size="12.00">+ Reviewed_User_ID : INT</text>
<text text-anchor="start" x="1060" y="-725.9" font-family="Arial" font-size="12.00">+ Rating : INT</text>
<text text-anchor="start" x="1060" y="-712.9" font-family="Arial" font-size="12.00">+ Review_Text : TEXT</text>
<text text-anchor="start" x="1060" y="-699.9" font-family="Arial" font-size="12.00">+ Timestamp : TIMESTAMP</text>
<polyline fill="none" stroke="black" points="1052,-692.5 1232,-692.5 "/>
<text text-anchor="start" x="1060" y="-678.9" font-family="Arial" font-size="12.00">+ submitReview()</text>
<text text-anchor="start" x="1060" y="-665.9" font-family="Arial" font-size="12.00">+ getReviews()</text>
<text text-anchor="start" x="1060" y="-652.9" font-family="Arial" font-size="12.00">+ calculateAverageRating()</text>
</g>
<!-- member&#45;&gt;reviews_ratings -->
<g id="edge6" class="edge">
<title>member&#45;&gt;reviews_ratings</title>
<path fill="none" stroke="#000000" stroke-width="3" d="M1131.54,-923.36C1130.43,-900.24 1130.06,-876.43 1131,-854 1131.6,-839.7 1132.57,-824.53 1133.7,-809.8"/>
<polygon fill="#000000" stroke="#000000" stroke-width="3" points="1137.2,-809.93 1134.49,-799.68 1130.22,-809.38 1137.2,-809.93"/>
<text text-anchor="middle" x="1155.5" y="-857.8" font-family="Arial Bold" font-size="14.00" fill="#000000"> Writes </text>
<text text-anchor="middle" x="1126" y="-808.34" font-family="Arial Bold" font-size="14.00" fill="#000000"> * </text>
<text text-anchor="middle" x="1138.45" y="-906.35" font-family="Arial Bold" font-size="14.00" fill="#000000"> 1 </text>
</g>
<!-- member&#45;&gt;reviews_ratings -->
<g id="edge7" class="edge">
<title>member&#45;&gt;reviews_ratings</title>
<path fill="none" stroke="#000000" stroke-width="3" d="M1190,-923.34C1193.31,-900.27 1194.01,-876.5 1190,-854 1187.36,-839.18 1183.16,-823.84 1178.32,-809.11"/>
<polygon fill="#000000" stroke="#000000" stroke-width="3" points="1181.59,-807.87 1175.05,-799.53 1174.96,-810.13 1181.59,-807.87"/>
<text text-anchor="middle" x="1224.5" y="-857.8" font-family="Arial Bold" font-size="14.00" fill="#000000"> Receives </text>
<text text-anchor="middle" x="1172.14" y="-810.55" font-family="Arial Bold" font-size="14.00" fill="#000000"> * </text>
<text text-anchor="middle" x="1199.13" y="-907.74" font-family="Arial Bold" font-size="14.00" fill="#000000"> 1 </text>
</g>
<!-- complaints -->
<g id="node9" class="node">
<title>complaints</title>
<path fill="none" stroke="black" d="M1302,-652C1302,-652 1458,-652 1458,-652 1464,-652 1470,-658 1470,-664 1470,-664 1470,-781 1470,-781 1470,-787 1464,-793 1458,-793 1458,-793 1302,-793 1302,-793 1296,-793 1290,-787 1290,-781 1290,-781 1290,-664 1290,-664 1290,-658 1296,-652 1302,-652"/>
<text text-anchor="middle" x="1380" y="-779.4" font-family="Arial" font-size="12.00">Complaints</text>
<polyline fill="none" stroke="black" points="1290,-772 1470,-772 "/>
<text text-anchor="start" x="1298" y="-758.4" font-family="Arial" font-size="12.00">+ Complaint_ID : INT</text>
<text text-anchor="start" x="1298" y="-745.4" font-family="Arial" font-size="12.00">+ Member_ID : INT</text>
<text text-anchor="start" x="1298" y="-732.4" font-family="Arial" font-size="12.00">+ Description : TEXT</text>
<text text-anchor="start" x="1298" y="-719.4" font-family="Arial" font-size="12.00">+ Status : ENUM</text>
<text text-anchor="start" x="1298" y="-706.4" font-family="Arial" font-size="12.00">+ Filed_On : TIMESTAMP</text>
<polyline fill="none" stroke="black" points="1290,-699 1470,-699 "/>
<text text-anchor="start" x="1298" y="-685.4" font-family="Arial" font-size="12.00">+ fileComplaint()</text>
<text text-anchor="start" x="1298" y="-672.4" font-family="Arial" font-size="12.00">+ updateStatus()</text>
<text text-anchor="start" x="1298" y="-659.4" font-family="Arial" font-size="12.00">+ getComplaintDetails()</text>
</g>
<!-- member&#45;&gt;complaints -->
<g id="edge8" class="edge">
<title>member&#45;&gt;complaints</title>
<path fill="none" stroke="#000000" stroke-width="3" d="M1238.22,-925.32C1267.76,-883.26 1299.45,-838.16 1325.36,-801.28"/>
<polygon fill="#000000" stroke="#000000" stroke-width="3" points="1328.25,-803.25 1331.13,-793.06 1322.52,-799.23 1328.25,-803.25"/>
<text text-anchor="middle" x="1302.5" y="-857.8" font-family="Arial Bold" font-size="14.00" fill="#000000"> Files </text>
<text text-anchor="middle" x="1317.53" y="-795.67" font-family="Arial Bold" font-size="14.00" fill="#000000"> * </text>
<text text-anchor="middle" x="1251.82" y="-915.3" font-family="Arial Bold" font-size="14.00" fill="#000000"> 1 </text>
</g>
<!-- searches -->
<g id="node10" class="node">
<title>searches</title>
<path fill="none" stroke="black" d="M498,-658.5C498,-658.5 654,-658.5 654,-658.5 660,-658.5 666,-664.5 666,-670.5 666,-670.5 666,-774.5 666,-774.5 666,-780.5 660,-786.5 654,-786.5 654,-786.5 498,-786.5 498,-786.5 492,-786.5 486,-780.5 486,-774.5 486,-774.5 486,-670.5 486,-670.5 486,-664.5 492,-658.5 498,-658.5"/>
<text text-anchor="middle" x="576" y="-772.9" font-family="Arial" font-size="12.00">Searches</text>
<polyline fill="none" stroke="black" points="486,-765.5 666,-765.5 "/>
<text text-anchor="start" x="494" y="-751.9" font-family="Arial" font-size="12.00">+ Search_ID : INT</text>
<text text-anchor="start" x="494" y="-738.9" font-family="Arial" font-size="12.00">+ Member_ID : INT</text>
<text text-anchor="start" x="494" y="-725.9" font-family="Arial" font-size="12.00">+ Query : VARCHAR(255)</text>
<text text-anchor="start" x="494" y="-712.9" font-family="Arial" font-size="12.00">+ Searched_On : TIMESTAMP</text>
<polyline fill="none" stroke="black" points="486,-705.5 666,-705.5 "/>
<text text-anchor="start" x="494" y="-691.9" font-family="Arial" font-size="12.00">+ logSearch()</text>
<text text-anchor="start" x="494" y="-678.9" font-family="Arial" font-size="12.00">+ getSearchHistory()</text>
<text text-anchor="start" x="494" y="-665.9" font-family="Arial" font-size="12.00">+ analyzeSearchTrends()</text>
</g>
<!-- member&#45;&gt;searches -->
<g id="edge9" class="edge">
<title>member&#45;&gt;searches</title>
<path fill="none" stroke="#000000" stroke-width="3" d="M1051.72,-1014.42C958.71,-969.56 813.09,-895.46 695,-818 683.17,-810.24 671.08,-801.59 659.35,-792.75"/>
<polygon fill="#000000" stroke="#000000" stroke-width="3" points="661.37,-789.89 651.29,-786.61 657.12,-795.46 661.37,-789.89"/>
<text text-anchor="middle" x="799" y="-857.8" font-family="Arial Bold" font-size="14.00" fill="#000000"> Performs </text>
<text text-anchor="middle" x="657.08" y="-796.75" font-family="Arial Bold" font-size="14.00" fill="#000000"> * </text>
<text text-anchor="middle" x="1043.32" y="-998.29" font-family="Arial Bold" font-size="14.00" fill="#000000"> 1 </text>
</g>
<!-- category -->
<g id="node2" class="node">
<title>category</title>
<path fill="none" stroke="black" d="M736,-671.5C736,-671.5 922,-671.5 922,-671.5 928,-671.5 934,-677.5 934,-683.5 934,-683.5 934,-761.5 934,-761.5 934,-767.5 928,-773.5 922,-773.5 922,-773.5 736,-773.5 736,-773.5 730,-773.5 724,-767.5 724,-761.5 724,-761.5 724,-683.5 724,-683.5 724,-677.5 730,-671.5 736,-671.5"/>
<text text-anchor="middle" x="829" y="-759.9" font-family="Arial" font-size="12.00">Category</text>
<polyline fill="none" stroke="black" points="724,-752.5 934,-752.5 "/>
<text text-anchor="start" x="732" y="-738.9" font-family="Arial" font-size="12.00">+ Category_ID : INT</text>
<text text-anchor="start" x="732" y="-725.9" font-family="Arial" font-size="12.00">+ Category_Name : VARCHAR(100)</text>
<polyline fill="none" stroke="black" points="724,-718.5 934,-718.5 "/>
<text text-anchor="start" x="732" y="-704.9" font-family="Arial" font-size="12.00">+ addCategory()</text>
<text text-anchor="start" x="732" y="-691.9" font-family="Arial" font-size="12.00">+ getProducts()</text>
<text text-anchor="start" x="732" y="-678.9" font-family="Arial" font-size="12.00">+ updateCategory()</text>
</g>
<!-- category&#45;&gt;product_listing -->
<g id="edge10" class="edge">
<title>category&#45;&gt;product_listing</title>
<path fill="none" stroke="#000000" stroke-width="3" d="M799.84,-671.25C777.74,-633.16 746.45,-579.22 718.17,-530.49"/>
<polygon fill="#000000" stroke="#000000" stroke-width="3" points="721.16,-528.67 713.11,-521.77 715.11,-532.18 721.16,-528.67"/>
<text text-anchor="middle" x="783" y="-579.8" font-family="Arial Bold" font-size="14.00" fill="#000000"> Contains </text>
<text text-anchor="middle" x="713.15" y="-533.07" font-family="Arial Bold" font-size="14.00" fill="#000000"> * </text>
<text text-anchor="middle" x="799.81" y="-652.55" font-family="Arial Bold" font-size="14.00" fill="#000000"> 1 </text>
</g>
<!-- product_listing&#45;&gt;transaction_listing -->
<g id="edge11" class="edge">
<title>product_listing&#45;&gt;transaction_listing</title>
<path fill="none" stroke="#000000" stroke-width="3" d="M556.89,-311.26C519.3,-271 476.39,-225.04 440.43,-186.51"/>
<polygon fill="#000000" stroke="#000000" stroke-width="3" points="442.72,-183.83 433.33,-178.91 437.6,-188.61 442.72,-183.83"/>
<text text-anchor="middle" x="523.5" y="-236.8" font-family="Arial Bold" font-size="14.00" fill="#000000"> Sold In </text>
<text text-anchor="middle" x="436.71" y="-189.82" font-family="Arial Bold" font-size="14.00" fill="#000000"> 1 </text>
<text text-anchor="middle" x="553.51" y="-292.95" font-family="Arial Bold" font-size="14.00" fill="#000000"> 1 </text>
</g>
<!-- product_listing&#45;&gt;wishlist -->
<g id="edge12" class="edge">
<title>product_listing&#45;&gt;wishlist</title>
<path fill="none" stroke="#000000" stroke-width="3" d="M682.79,-302.23C695.41,-260.35 709.52,-213.56 720.9,-175.8"/>
<polygon fill="#000000" stroke="#000000" stroke-width="3" points="724.35,-176.48 723.89,-165.9 717.65,-174.46 724.35,-176.48"/>
<text text-anchor="middle" x="736.5" y="-236.8" font-family="Arial Bold" font-size="14.00" fill="#000000"> Added To </text>
<text text-anchor="middle" x="712.96" y="-172.47" font-family="Arial Bold" font-size="14.00" fill="#000000"> * </text>
<text text-anchor="middle" x="693.72" y="-288.26" font-family="Arial Bold" font-size="14.00" fill="#000000"> 1 </text>
</g>
<!-- report_analytics -->
<g id="node8" class="node">
<title>report_analytics</title>
<path fill="none" stroke="black" d="M425.5,-1001.5C425.5,-1001.5 592.5,-1001.5 592.5,-1001.5 598.5,-1001.5 604.5,-1007.5 604.5,-1013.5 604.5,-1013.5 604.5,-1104.5 604.5,-1104.5 604.5,-1110.5 598.5,-1116.5 592.5,-1116.5 592.5,-1116.5 425.5,-1116.5 425.5,-1116.5 419.5,-1116.5 413.5,-1110.5 413.5,-1104.5 413.5,-1104.5 413.5,-1013.5 413.5,-1013.5 413.5,-1007.5 419.5,-1001.5 425.5,-1001.5"/>
<text text-anchor="middle" x="509" y="-1102.9" font-family="Arial" font-size="12.00">ReportAnalytics</text>
<polyline fill="none" stroke="black" points="413.5,-1095.5 604.5,-1095.5 "/>
<text text-anchor="start" x="421.5" y="-1081.9" font-family="Arial" font-size="12.00">+ Report_ID : INT</text>
<text text-anchor="start" x="421.5" y="-1068.9" font-family="Arial" font-size="12.00">+ Report_Type : VARCHAR(100)</text>
<text text-anchor="start" x="421.5" y="-1055.9" font-family="Arial" font-size="12.00">+ Generated_On : TIMESTAMP</text>
<polyline fill="none" stroke="black" points="413.5,-1048.5 604.5,-1048.5 "/>
<text text-anchor="start" x="421.5" y="-1034.9" font-family="Arial" font-size="12.00">+ generateReport()</text>
<text text-anchor="start" x="421.5" y="-1021.9" font-family="Arial" font-size="12.00">+ getReportDetails()</text>
<text text-anchor="start" x="421.5" y="-1008.9" font-family="Arial" font-size="12.00">+ analyzeTrends()</text>
</g>
</g>
</svg>
