<?xml version="1.0" encoding="UTF-8" standalone="no"?>
<!DOCTYPE svg PUBLIC "-//W3C//DTD SVG 1.1//EN"
 "http://www.w3.org/Graphics/SVG/1.1/DTD/svg11.dtd">
<!-- Generated by graphviz version 2.43.0 (0)
 -->
<!-- Title: CampusTradeObjectDiagram Pages: 1 -->
<svg width="2686pt" height="746pt"
 viewBox="0.00 0.00 2686.00 746.00" xmlns="http://www.w3.org/2000/svg" xmlns:xlink="http://www.w3.org/1999/xlink">
<g id="graph0" class="graph" transform="scale(1 1) rotate(0) translate(4 742)">
<title>CampusTradeObjectDiagram</title>
<polygon fill="white" stroke="transparent" points="-4,4 -4,-742 2682,-742 2682,4 -4,4"/>
<g id="clust1" class="cluster">
<title>cluster_object_instances</title>
<polygon fill="none" stroke="gray" stroke-dasharray="5,2" points="8,-8 8,-730 2670,-730 2670,-8 8,-8"/>
<text text-anchor="middle" x="1339" y="-714.8" font-family="Arial" font-size="14.00">CampusTrade Object Instances</text>
</g>
<g id="clust2" class="cluster">
<title>cluster_member_objects</title>
<polygon fill="lightblue" stroke="lightblue" points="1752,-513 1752,-699 2286,-699 2286,-513 1752,-513"/>
<text text-anchor="middle" x="2019" y="-683.8" font-family="Arial" font-size="14.00">Member Objects</text>
</g>
<g id="clust3" class="cluster">
<title>cluster_category_objects</title>
<polygon fill="lightgreen" stroke="lightgreen" points="48,-558.5 48,-653.5 487,-653.5 487,-558.5 48,-558.5"/>
<text text-anchor="middle" x="267.5" y="-638.3" font-family="Arial" font-size="14.00">Category Objects</text>
</g>
<g id="clust4" class="cluster">
<title>cluster_product_objects</title>
<polygon fill="lightyellow" stroke="lightyellow" points="16,-245 16,-431 524,-431 524,-245 16,-245"/>
<text text-anchor="middle" x="270" y="-415.8" font-family="Arial" font-size="14.00">Product Objects</text>
</g>
<g id="clust5" class="cluster">
<title>cluster_transaction_objects</title>
<polygon fill="lightcoral" stroke="lightcoral" points="424,-16 424,-163 986,-163 986,-16 424,-16"/>
<text text-anchor="middle" x="705" y="-147.8" font-family="Arial" font-size="14.00">Transaction Objects</text>
</g>
<g id="clust6" class="cluster">
<title>cluster_other_objects</title>
<polygon fill="lavender" stroke="lavender" points="566,-264.5 566,-411.5 2382,-411.5 2382,-264.5 566,-264.5"/>
<text text-anchor="middle" x="1474" y="-396.3" font-family="Arial" font-size="14.00">Other Objects</text>
</g>
<!-- aliceObj -->
<g id="node1" class="node">
<title>aliceObj</title>
<path fill="none" stroke="black" d="M1772,-521.5C1772,-521.5 1978,-521.5 1978,-521.5 1984,-521.5 1990,-527.5 1990,-533.5 1990,-533.5 1990,-655.5 1990,-655.5 1990,-661.5 1984,-667.5 1978,-667.5 1978,-667.5 1772,-667.5 1772,-667.5 1766,-667.5 1760,-661.5 1760,-655.5 1760,-655.5 1760,-533.5 1760,-533.5 1760,-527.5 1766,-521.5 1772,-521.5"/>
<text text-anchor="middle" x="1875" y="-653.9" font-family="Arial" font-size="12.00">member:Alice Johnson</text>
<polyline fill="none" stroke="black" points="1760,-646.5 1990,-646.5 "/>
<text text-anchor="start" x="1768" y="-632.9" font-family="Arial" font-size="12.00">Member_ID = 1</text>
<text text-anchor="start" x="1768" y="-619.9" font-family="Arial" font-size="12.00">Name = &quot;Alice Johnson&quot;</text>
<text text-anchor="start" x="1768" y="-606.9" font-family="Arial" font-size="12.00">Email = &quot;alice@example.com&quot;</text>
<text text-anchor="start" x="1768" y="-593.9" font-family="Arial" font-size="12.00">Password = &quot;*****&quot;</text>
<text text-anchor="start" x="1768" y="-580.9" font-family="Arial" font-size="12.00">Contact_No = &quot;9876543210&quot;</text>
<text text-anchor="start" x="1768" y="-567.9" font-family="Arial" font-size="12.00">Age = 22</text>
<text text-anchor="start" x="1768" y="-554.9" font-family="Arial" font-size="12.00">Profile_Image = BLOB_DATA</text>
<text text-anchor="start" x="1768" y="-541.9" font-family="Arial" font-size="12.00">Role = &quot;Student&quot;</text>
<text text-anchor="start" x="1768" y="-528.9" font-family="Arial" font-size="12.00">Registered_On = &quot;2025&#45;01&#45;15 10:30:00&quot;</text>
</g>
<!-- laptopObj -->
<g id="node5" class="node">
<title>laptopObj</title>
<path fill="none" stroke="black" d="M36,-253.5C36,-253.5 216,-253.5 216,-253.5 222,-253.5 228,-259.5 228,-265.5 228,-265.5 228,-387.5 228,-387.5 228,-393.5 222,-399.5 216,-399.5 216,-399.5 36,-399.5 36,-399.5 30,-399.5 24,-393.5 24,-387.5 24,-387.5 24,-265.5 24,-265.5 24,-259.5 30,-253.5 36,-253.5"/>
<text text-anchor="middle" x="126" y="-385.9" font-family="Arial" font-size="12.00">product_listing:Laptop</text>
<polyline fill="none" stroke="black" points="24,-378.5 228,-378.5 "/>
<text text-anchor="start" x="32" y="-364.9" font-family="Arial" font-size="12.00">Product_ID = 1</text>
<text text-anchor="start" x="32" y="-351.9" font-family="Arial" font-size="12.00">Seller_ID = 1</text>
<text text-anchor="start" x="32" y="-338.9" font-family="Arial" font-size="12.00">Title = &quot;Laptop&quot;</text>
<text text-anchor="start" x="32" y="-325.9" font-family="Arial" font-size="12.00">Description = &quot;Used MacBook Pro&quot;</text>
<text text-anchor="start" x="32" y="-312.9" font-family="Arial" font-size="12.00">Price = 800.00</text>
<text text-anchor="start" x="32" y="-299.9" font-family="Arial" font-size="12.00">Category_ID = 1</text>
<text text-anchor="start" x="32" y="-286.9" font-family="Arial" font-size="12.00">Condition_ = &quot;Used&quot;</text>
<text text-anchor="start" x="32" y="-273.9" font-family="Arial" font-size="12.00">Image_URL = &quot;/images/laptop.jpg&quot;</text>
<text text-anchor="start" x="32" y="-260.9" font-family="Arial" font-size="12.00">Listed_On = &quot;2025&#45;02&#45;25 09:15:00&quot;</text>
</g>
<!-- aliceObj&#45;&gt;laptopObj -->
<g id="edge1" class="edge">
<title>aliceObj&#45;&gt;laptopObj</title>
<path fill="none" stroke="#000000" stroke-width="1.5" d="M1759.8,-582.35C1393.04,-546.8 275.5,-438.04 258,-431 242.08,-424.59 226.49,-415.65 211.93,-405.68"/>
<polygon fill="#000000" stroke="#000000" stroke-width="1.5" points="213.66,-402.62 203.48,-399.7 209.62,-408.34 213.66,-402.62"/>
<text text-anchor="middle" x="590" y="-457.4" font-family="Arial Bold" font-size="12.00" fill="#000000">Lists</text>
</g>
<!-- transaction1Obj -->
<g id="node7" class="node">
<title>transaction1Obj</title>
<path fill="none" stroke="black" d="M444,-24.5C444,-24.5 664,-24.5 664,-24.5 670,-24.5 676,-30.5 676,-36.5 676,-36.5 676,-119.5 676,-119.5 676,-125.5 670,-131.5 664,-131.5 664,-131.5 444,-131.5 444,-131.5 438,-131.5 432,-125.5 432,-119.5 432,-119.5 432,-36.5 432,-36.5 432,-30.5 438,-24.5 444,-24.5"/>
<text text-anchor="middle" x="554" y="-117.9" font-family="Arial" font-size="12.00">transaction_listing:Transaction1</text>
<polyline fill="none" stroke="black" points="432,-110.5 676,-110.5 "/>
<text text-anchor="start" x="440" y="-96.9" font-family="Arial" font-size="12.00">Transaction_ID = 1</text>
<text text-anchor="start" x="440" y="-83.9" font-family="Arial" font-size="12.00">Buyer_ID = 3</text>
<text text-anchor="start" x="440" y="-70.9" font-family="Arial" font-size="12.00">Seller_ID = 1</text>
<text text-anchor="start" x="440" y="-57.9" font-family="Arial" font-size="12.00">Product_ID = 1</text>
<text text-anchor="start" x="440" y="-44.9" font-family="Arial" font-size="12.00">Payment_Method = &quot;Cash&quot;</text>
<text text-anchor="start" x="440" y="-31.9" font-family="Arial" font-size="12.00">Transaction_Date = &quot;2025&#45;03&#45;10 13:45:00&quot;</text>
</g>
<!-- aliceObj&#45;&gt;transaction1Obj -->
<g id="edge5" class="edge">
<title>aliceObj&#45;&gt;transaction1Obj</title>
<path fill="none" stroke="#000000" stroke-width="1.5" d="M1983.98,-521.4C2028.64,-495.5 2081.98,-469 2134,-454 2190.16,-437.8 2356.52,-474.1 2396,-431 2451.84,-370.04 2453.02,-304.85 2396,-245 2266.25,-108.8 885.88,-214.63 705,-163 683.39,-156.83 661.5,-147.08 641.34,-136.37"/>
<polygon fill="#000000" stroke="#000000" stroke-width="1.5" points="642.96,-133.27 632.51,-131.56 639.62,-139.42 642.96,-133.27"/>
<text text-anchor="middle" x="2452" y="-323.4" font-family="Arial Bold" font-size="12.00" fill="#000000">Sells</text>
</g>
<!-- aliceCreditObj -->
<g id="node9" class="node">
<title>aliceCreditObj</title>
<path fill="none" stroke="black" d="M1968,-292.5C1968,-292.5 2124,-292.5 2124,-292.5 2130,-292.5 2136,-298.5 2136,-304.5 2136,-304.5 2136,-348.5 2136,-348.5 2136,-354.5 2130,-360.5 2124,-360.5 2124,-360.5 1968,-360.5 1968,-360.5 1962,-360.5 1956,-354.5 1956,-348.5 1956,-348.5 1956,-304.5 1956,-304.5 1956,-298.5 1962,-292.5 1968,-292.5"/>
<text text-anchor="middle" x="2046" y="-346.9" font-family="Arial" font-size="12.00">credit_logs:AliceCredit</text>
<polyline fill="none" stroke="black" points="1956,-339.5 2136,-339.5 "/>
<text text-anchor="start" x="1964" y="-325.9" font-family="Arial" font-size="12.00">Credit_ID = 1</text>
<text text-anchor="start" x="1964" y="-312.9" font-family="Arial" font-size="12.00">Member_ID = 1</text>
<text text-anchor="start" x="1964" y="-299.9" font-family="Arial" font-size="12.00">Balance = 0.00</text>
</g>
<!-- aliceObj&#45;&gt;aliceCreditObj -->
<g id="edge9" class="edge">
<title>aliceObj&#45;&gt;aliceCreditObj</title>
<path fill="none" stroke="#000000" stroke-width="1.5" d="M1921.5,-521.17C1952.83,-472.43 1993.04,-409.87 2019.16,-369.25"/>
<polygon fill="#000000" stroke="#000000" stroke-width="1.5" points="2022.21,-370.98 2024.67,-360.67 2016.32,-367.19 2022.21,-370.98"/>
<text text-anchor="middle" x="1971.5" y="-457.4" font-family="Arial Bold" font-size="12.00" fill="#000000">Has</text>
</g>
<!-- wishlist1Obj -->
<g id="node11" class="node">
<title>wishlist1Obj</title>
<path fill="none" stroke="black" d="M872.5,-286C872.5,-286 1055.5,-286 1055.5,-286 1061.5,-286 1067.5,-292 1067.5,-298 1067.5,-298 1067.5,-355 1067.5,-355 1067.5,-361 1061.5,-367 1055.5,-367 1055.5,-367 872.5,-367 872.5,-367 866.5,-367 860.5,-361 860.5,-355 860.5,-355 860.5,-298 860.5,-298 860.5,-292 866.5,-286 872.5,-286"/>
<text text-anchor="middle" x="964" y="-353.4" font-family="Arial" font-size="12.00">wishlist:Wishlist1</text>
<polyline fill="none" stroke="black" points="860.5,-346 1067.5,-346 "/>
<text text-anchor="start" x="868.5" y="-332.4" font-family="Arial" font-size="12.00">Wishlist_ID = 1</text>
<text text-anchor="start" x="868.5" y="-319.4" font-family="Arial" font-size="12.00">Member_ID = 1</text>
<text text-anchor="start" x="868.5" y="-306.4" font-family="Arial" font-size="12.00">Product_ID = 11</text>
<text text-anchor="start" x="868.5" y="-293.4" font-family="Arial" font-size="12.00">Added_On = &quot;2025&#45;03&#45;20 10:15:00&quot;</text>
</g>
<!-- aliceObj&#45;&gt;wishlist1Obj -->
<g id="edge11" class="edge">
<title>aliceObj&#45;&gt;wishlist1Obj</title>
<path fill="none" stroke="#000000" stroke-width="1.5" d="M1759.79,-585.76C1603.27,-571.69 1317.69,-533.18 1097,-431 1066.35,-416.81 1036.29,-394.37 1012.53,-374"/>
<polygon fill="#000000" stroke="#000000" stroke-width="1.5" points="1014.56,-371.13 1004.72,-367.19 1009.96,-376.4 1014.56,-371.13"/>
<text text-anchor="middle" x="1200.5" y="-457.4" font-family="Arial Bold" font-size="12.00" fill="#000000">Adds To</text>
</g>
<!-- review1Obj -->
<g id="node12" class="node">
<title>review1Obj</title>
<path fill="none" stroke="black" d="M1138,-273C1138,-273 1322,-273 1322,-273 1328,-273 1334,-279 1334,-285 1334,-285 1334,-368 1334,-368 1334,-374 1328,-380 1322,-380 1322,-380 1138,-380 1138,-380 1132,-380 1126,-374 1126,-368 1126,-368 1126,-285 1126,-285 1126,-279 1132,-273 1138,-273"/>
<text text-anchor="middle" x="1230" y="-366.4" font-family="Arial" font-size="12.00">reviews_ratings:Review1</text>
<polyline fill="none" stroke="black" points="1126,-359 1334,-359 "/>
<text text-anchor="start" x="1134" y="-345.4" font-family="Arial" font-size="12.00">Review_ID = 1</text>
<text text-anchor="start" x="1134" y="-332.4" font-family="Arial" font-size="12.00">Reviewer_ID = 3</text>
<text text-anchor="start" x="1134" y="-319.4" font-family="Arial" font-size="12.00">Reviewed_User_ID = 1</text>
<text text-anchor="start" x="1134" y="-306.4" font-family="Arial" font-size="12.00">Rating = 5</text>
<text text-anchor="start" x="1134" y="-293.4" font-family="Arial" font-size="12.00">Review_Text = &quot;Great seller&quot;</text>
<text text-anchor="start" x="1134" y="-280.4" font-family="Arial" font-size="12.00">Timestamp = &quot;2025&#45;03&#45;12 14:20:00&quot;</text>
</g>
<!-- aliceObj&#45;&gt;review1Obj -->
<g id="edge14" class="edge">
<title>aliceObj&#45;&gt;review1Obj</title>
<path fill="none" stroke="#000000" stroke-width="1.5" d="M1759.83,-569.31C1652.93,-544.04 1491.44,-498.57 1363,-431 1339.91,-418.85 1316.77,-402.61 1296.42,-386.6"/>
<polygon fill="#000000" stroke="#000000" stroke-width="1.5" points="1298.46,-383.76 1288.47,-380.25 1294.1,-389.23 1298.46,-383.76"/>
<text text-anchor="middle" x="1454.5" y="-457.4" font-family="Arial Bold" font-size="12.00" fill="#000000">Receives</text>
</g>
<!-- complaint1Obj -->
<g id="node13" class="node">
<title>complaint1Obj</title>
<path fill="none" stroke="black" d="M1404,-279.5C1404,-279.5 1604,-279.5 1604,-279.5 1610,-279.5 1616,-285.5 1616,-291.5 1616,-291.5 1616,-361.5 1616,-361.5 1616,-367.5 1610,-373.5 1604,-373.5 1604,-373.5 1404,-373.5 1404,-373.5 1398,-373.5 1392,-367.5 1392,-361.5 1392,-361.5 1392,-291.5 1392,-291.5 1392,-285.5 1398,-279.5 1404,-279.5"/>
<text text-anchor="middle" x="1504" y="-359.9" font-family="Arial" font-size="12.00">complaints:Complaint1</text>
<polyline fill="none" stroke="black" points="1392,-352.5 1616,-352.5 "/>
<text text-anchor="start" x="1400" y="-338.9" font-family="Arial" font-size="12.00">Complaint_ID = 1</text>
<text text-anchor="start" x="1400" y="-325.9" font-family="Arial" font-size="12.00">Member_ID = 1</text>
<text text-anchor="start" x="1400" y="-312.9" font-family="Arial" font-size="12.00">Description = &quot;Laptop charger missing&quot;</text>
<text text-anchor="start" x="1400" y="-299.9" font-family="Arial" font-size="12.00">Status = &quot;Open&quot;</text>
<text text-anchor="start" x="1400" y="-286.9" font-family="Arial" font-size="12.00">Filed_On = &quot;2025&#45;03&#45;18 09:30:00&quot;</text>
</g>
<!-- aliceObj&#45;&gt;complaint1Obj -->
<g id="edge12" class="edge">
<title>aliceObj&#45;&gt;complaint1Obj</title>
<path fill="none" stroke="#000000" stroke-width="1.5" d="M1772.25,-521.5C1732.4,-493.42 1686.46,-460.86 1645,-431 1621.96,-414.4 1596.93,-396.12 1574.45,-379.6"/>
<polygon fill="#000000" stroke="#000000" stroke-width="1.5" points="1576.42,-376.7 1566.29,-373.6 1572.27,-382.34 1576.42,-376.7"/>
<text text-anchor="middle" x="1709" y="-457.4" font-family="Arial Bold" font-size="12.00" fill="#000000">Files</text>
</g>
<!-- search1Obj -->
<g id="node14" class="node">
<title>search1Obj</title>
<path fill="none" stroke="black" d="M1686,-286C1686,-286 1886,-286 1886,-286 1892,-286 1898,-292 1898,-298 1898,-298 1898,-355 1898,-355 1898,-361 1892,-367 1886,-367 1886,-367 1686,-367 1686,-367 1680,-367 1674,-361 1674,-355 1674,-355 1674,-298 1674,-298 1674,-292 1680,-286 1686,-286"/>
<text text-anchor="middle" x="1786" y="-353.4" font-family="Arial" font-size="12.00">searches:Search1</text>
<polyline fill="none" stroke="black" points="1674,-346 1898,-346 "/>
<text text-anchor="start" x="1682" y="-332.4" font-family="Arial" font-size="12.00">Search_ID = 1</text>
<text text-anchor="start" x="1682" y="-319.4" font-family="Arial" font-size="12.00">Member_ID = 1</text>
<text text-anchor="start" x="1682" y="-306.4" font-family="Arial" font-size="12.00">Query = &quot;Used MacBook&quot;</text>
<text text-anchor="start" x="1682" y="-293.4" font-family="Arial" font-size="12.00">Searched_On = &quot;2025&#45;03&#45;05 15:45:00&quot;</text>
</g>
<!-- aliceObj&#45;&gt;search1Obj -->
<g id="edge13" class="edge">
<title>aliceObj&#45;&gt;search1Obj</title>
<path fill="none" stroke="#000000" stroke-width="1.5" d="M1850.8,-521.17C1835.49,-475.4 1816.09,-417.44 1802.53,-376.9"/>
<polygon fill="#000000" stroke="#000000" stroke-width="1.5" points="1805.79,-375.62 1799.3,-367.25 1799.15,-377.84 1805.79,-375.62"/>
<text text-anchor="middle" x="1856.5" y="-457.4" font-family="Arial Bold" font-size="12.00" fill="#000000">Performs</text>
</g>
<!-- bobObj -->
<g id="node2" class="node">
<title>bobObj</title>
<path fill="none" stroke="black" d="M2060,-521.5C2060,-521.5 2266,-521.5 2266,-521.5 2272,-521.5 2278,-527.5 2278,-533.5 2278,-533.5 2278,-655.5 2278,-655.5 2278,-661.5 2272,-667.5 2266,-667.5 2266,-667.5 2060,-667.5 2060,-667.5 2054,-667.5 2048,-661.5 2048,-655.5 2048,-655.5 2048,-533.5 2048,-533.5 2048,-527.5 2054,-521.5 2060,-521.5"/>
<text text-anchor="middle" x="2163" y="-653.9" font-family="Arial" font-size="12.00">member:Bob Smith</text>
<polyline fill="none" stroke="black" points="2048,-646.5 2278,-646.5 "/>
<text text-anchor="start" x="2056" y="-632.9" font-family="Arial" font-size="12.00">Member_ID = 2</text>
<text text-anchor="start" x="2056" y="-619.9" font-family="Arial" font-size="12.00">Name = &quot;Bob Smith&quot;</text>
<text text-anchor="start" x="2056" y="-606.9" font-family="Arial" font-size="12.00">Email = &quot;bob@example.com&quot;</text>
<text text-anchor="start" x="2056" y="-593.9" font-family="Arial" font-size="12.00">Password = &quot;*****&quot;</text>
<text text-anchor="start" x="2056" y="-580.9" font-family="Arial" font-size="12.00">Contact_No = &quot;9876543211&quot;</text>
<text text-anchor="start" x="2056" y="-567.9" font-family="Arial" font-size="12.00">Age = 35</text>
<text text-anchor="start" x="2056" y="-554.9" font-family="Arial" font-size="12.00">Profile_Image = BLOB_DATA</text>
<text text-anchor="start" x="2056" y="-541.9" font-family="Arial" font-size="12.00">Role = &quot;Faculty&quot;</text>
<text text-anchor="start" x="2056" y="-528.9" font-family="Arial" font-size="12.00">Registered_On = &quot;2025&#45;02&#45;20 14:45:00&quot;</text>
</g>
<!-- pythonBookObj -->
<g id="node6" class="node">
<title>pythonBookObj</title>
<path fill="none" stroke="black" d="M298.5,-253.5C298.5,-253.5 503.5,-253.5 503.5,-253.5 509.5,-253.5 515.5,-259.5 515.5,-265.5 515.5,-265.5 515.5,-387.5 515.5,-387.5 515.5,-393.5 509.5,-399.5 503.5,-399.5 503.5,-399.5 298.5,-399.5 298.5,-399.5 292.5,-399.5 286.5,-393.5 286.5,-387.5 286.5,-387.5 286.5,-265.5 286.5,-265.5 286.5,-259.5 292.5,-253.5 298.5,-253.5"/>
<text text-anchor="middle" x="401" y="-385.9" font-family="Arial" font-size="12.00">product_listing:Python Book</text>
<polyline fill="none" stroke="black" points="286.5,-378.5 515.5,-378.5 "/>
<text text-anchor="start" x="294.5" y="-364.9" font-family="Arial" font-size="12.00">Product_ID = 2</text>
<text text-anchor="start" x="294.5" y="-351.9" font-family="Arial" font-size="12.00">Seller_ID = 2</text>
<text text-anchor="start" x="294.5" y="-338.9" font-family="Arial" font-size="12.00">Title = &quot;Python Programming Book&quot;</text>
<text text-anchor="start" x="294.5" y="-325.9" font-family="Arial" font-size="12.00">Description = &quot;Learn Python&quot;</text>
<text text-anchor="start" x="294.5" y="-312.9" font-family="Arial" font-size="12.00">Price = 20.00</text>
<text text-anchor="start" x="294.5" y="-299.9" font-family="Arial" font-size="12.00">Category_ID = 2</text>
<text text-anchor="start" x="294.5" y="-286.9" font-family="Arial" font-size="12.00">Condition_ = &quot;New&quot;</text>
<text text-anchor="start" x="294.5" y="-273.9" font-family="Arial" font-size="12.00">Image_URL = &quot;/images/pythonbook.jpg&quot;</text>
<text text-anchor="start" x="294.5" y="-260.9" font-family="Arial" font-size="12.00">Listed_On = &quot;2025&#45;03&#45;01 11:20:00&quot;</text>
</g>
<!-- bobObj&#45;&gt;pythonBookObj -->
<g id="edge2" class="edge">
<title>bobObj&#45;&gt;pythonBookObj</title>
<path fill="none" stroke="#000000" stroke-width="1.5" d="M2098.5,-521.43C2070.25,-495.02 2034.91,-468.16 1997,-454 1846.57,-397.83 705,-479.74 552,-431 533.17,-425 514.59,-415.82 497.24,-405.34"/>
<polygon fill="#000000" stroke="#000000" stroke-width="1.5" points="498.62,-402.08 488.28,-399.76 494.91,-408.02 498.62,-402.08"/>
<text text-anchor="middle" x="2037" y="-457.4" font-family="Arial Bold" font-size="12.00" fill="#000000">Lists</text>
</g>
<!-- transaction2Obj -->
<g id="node8" class="node">
<title>transaction2Obj</title>
<path fill="none" stroke="black" d="M746,-24.5C746,-24.5 966,-24.5 966,-24.5 972,-24.5 978,-30.5 978,-36.5 978,-36.5 978,-119.5 978,-119.5 978,-125.5 972,-131.5 966,-131.5 966,-131.5 746,-131.5 746,-131.5 740,-131.5 734,-125.5 734,-119.5 734,-119.5 734,-36.5 734,-36.5 734,-30.5 740,-24.5 746,-24.5"/>
<text text-anchor="middle" x="856" y="-117.9" font-family="Arial" font-size="12.00">transaction_listing:Transaction2</text>
<polyline fill="none" stroke="black" points="734,-110.5 978,-110.5 "/>
<text text-anchor="start" x="742" y="-96.9" font-family="Arial" font-size="12.00">Transaction_ID = 2</text>
<text text-anchor="start" x="742" y="-83.9" font-family="Arial" font-size="12.00">Buyer_ID = 4</text>
<text text-anchor="start" x="742" y="-70.9" font-family="Arial" font-size="12.00">Seller_ID = 2</text>
<text text-anchor="start" x="742" y="-57.9" font-family="Arial" font-size="12.00">Product_ID = 2</text>
<text text-anchor="start" x="742" y="-44.9" font-family="Arial" font-size="12.00">Payment_Method = &quot;Credit&quot;</text>
<text text-anchor="start" x="742" y="-31.9" font-family="Arial" font-size="12.00">Transaction_Date = &quot;2025&#45;03&#45;15 16:30:00&quot;</text>
</g>
<!-- bobObj&#45;&gt;transaction2Obj -->
<g id="edge6" class="edge">
<title>bobObj&#45;&gt;transaction2Obj</title>
<path fill="none" stroke="#000000" stroke-width="1.5" d="M2278.35,-576.59C2364.38,-557.28 2476.26,-516.45 2532,-431 2591.85,-339.25 2595.22,-248.15 2505,-186 2381.38,-100.85 1357.75,-83.41 988.31,-79.88"/>
<polygon fill="#000000" stroke="#000000" stroke-width="1.5" points="988.14,-76.38 978.11,-79.79 988.08,-83.38 988.14,-76.38"/>
<text text-anchor="middle" x="2589" y="-323.4" font-family="Arial Bold" font-size="12.00" fill="#000000">Sells</text>
</g>
<!-- bobCreditObj -->
<g id="node10" class="node">
<title>bobCreditObj</title>
<path fill="none" stroke="black" d="M2206,-292.5C2206,-292.5 2362,-292.5 2362,-292.5 2368,-292.5 2374,-298.5 2374,-304.5 2374,-304.5 2374,-348.5 2374,-348.5 2374,-354.5 2368,-360.5 2362,-360.5 2362,-360.5 2206,-360.5 2206,-360.5 2200,-360.5 2194,-354.5 2194,-348.5 2194,-348.5 2194,-304.5 2194,-304.5 2194,-298.5 2200,-292.5 2206,-292.5"/>
<text text-anchor="middle" x="2284" y="-346.9" font-family="Arial" font-size="12.00">credit_logs:BobCredit</text>
<polyline fill="none" stroke="black" points="2194,-339.5 2374,-339.5 "/>
<text text-anchor="start" x="2202" y="-325.9" font-family="Arial" font-size="12.00">Credit_ID = 2</text>
<text text-anchor="start" x="2202" y="-312.9" font-family="Arial" font-size="12.00">Member_ID = 2</text>
<text text-anchor="start" x="2202" y="-299.9" font-family="Arial" font-size="12.00">Balance = &#45;40.00</text>
</g>
<!-- bobObj&#45;&gt;bobCreditObj -->
<g id="edge10" class="edge">
<title>bobObj&#45;&gt;bobCreditObj</title>
<path fill="none" stroke="#000000" stroke-width="1.5" d="M2196.92,-521.36C2205.19,-503.61 2213.97,-484.64 2222,-467 2236.79,-434.53 2253.17,-397.63 2265.38,-369.94"/>
<polygon fill="#000000" stroke="#000000" stroke-width="1.5" points="2268.68,-371.12 2269.51,-360.55 2262.28,-368.29 2268.68,-371.12"/>
<text text-anchor="middle" x="2238.5" y="-457.4" font-family="Arial Bold" font-size="12.00" fill="#000000">Has</text>
</g>
<!-- electronicsObj -->
<g id="node3" class="node">
<title>electronicsObj</title>
<path fill="none" stroke="black" d="M67.5,-567C67.5,-567 228.5,-567 228.5,-567 234.5,-567 240.5,-573 240.5,-579 240.5,-579 240.5,-610 240.5,-610 240.5,-616 234.5,-622 228.5,-622 228.5,-622 67.5,-622 67.5,-622 61.5,-622 55.5,-616 55.5,-610 55.5,-610 55.5,-579 55.5,-579 55.5,-573 61.5,-567 67.5,-567"/>
<text text-anchor="middle" x="148" y="-608.4" font-family="Arial" font-size="12.00">category:Electronics</text>
<polyline fill="none" stroke="black" points="55.5,-601 240.5,-601 "/>
<text text-anchor="start" x="63.5" y="-587.4" font-family="Arial" font-size="12.00">Category_ID = 1</text>
<text text-anchor="start" x="63.5" y="-574.4" font-family="Arial" font-size="12.00">Category_Name = &quot;Electronics&quot;</text>
</g>
<!-- electronicsObj&#45;&gt;laptopObj -->
<g id="edge3" class="edge">
<title>electronicsObj&#45;&gt;laptopObj</title>
<path fill="none" stroke="#000000" stroke-width="1.5" d="M145.77,-566.53C142.76,-530.11 137.26,-463.6 132.82,-409.96"/>
<polygon fill="#000000" stroke="#000000" stroke-width="1.5" points="136.29,-409.44 131.98,-399.76 129.31,-410.02 136.29,-409.44"/>
<text text-anchor="middle" x="163" y="-457.4" font-family="Arial Bold" font-size="12.00" fill="#000000">Contains</text>
</g>
<!-- booksObj -->
<g id="node4" class="node">
<title>booksObj</title>
<path fill="none" stroke="black" d="M311,-567C311,-567 467,-567 467,-567 473,-567 479,-573 479,-579 479,-579 479,-610 479,-610 479,-616 473,-622 467,-622 467,-622 311,-622 311,-622 305,-622 299,-616 299,-610 299,-610 299,-579 299,-579 299,-573 305,-567 311,-567"/>
<text text-anchor="middle" x="389" y="-608.4" font-family="Arial" font-size="12.00">category:Books</text>
<polyline fill="none" stroke="black" points="299,-601 479,-601 "/>
<text text-anchor="start" x="307" y="-587.4" font-family="Arial" font-size="12.00">Category_ID = 2</text>
<text text-anchor="start" x="307" y="-574.4" font-family="Arial" font-size="12.00">Category_Name = &quot;Books&quot;</text>
</g>
<!-- booksObj&#45;&gt;pythonBookObj -->
<g id="edge4" class="edge">
<title>booksObj&#45;&gt;pythonBookObj</title>
<path fill="none" stroke="#000000" stroke-width="1.5" d="M390.22,-566.53C391.86,-530.11 394.86,-463.6 397.28,-409.96"/>
<polygon fill="#000000" stroke="#000000" stroke-width="1.5" points="400.79,-409.91 397.74,-399.76 393.79,-409.59 400.79,-409.91"/>
<text text-anchor="middle" x="421" y="-457.4" font-family="Arial Bold" font-size="12.00" fill="#000000">Contains</text>
</g>
<!-- laptopObj&#45;&gt;transaction1Obj -->
<g id="edge7" class="edge">
<title>laptopObj&#45;&gt;transaction1Obj</title>
<path fill="none" stroke="#000000" stroke-width="1.5" d="M228.15,-256.79C263.98,-233.51 304.82,-207.88 343,-186 372.68,-168.99 405.38,-151.73 435.99,-136.17"/>
<polygon fill="#000000" stroke="#000000" stroke-width="1.5" points="437.65,-139.26 444.99,-131.62 434.49,-133.01 437.65,-139.26"/>
<text text-anchor="middle" x="363" y="-189.4" font-family="Arial Bold" font-size="12.00" fill="#000000">Sold In</text>
</g>
<!-- pythonBookObj&#45;&gt;transaction2Obj -->
<g id="edge8" class="edge">
<title>pythonBookObj&#45;&gt;transaction2Obj</title>
<path fill="none" stroke="#000000" stroke-width="1.5" d="M465.05,-253.48C491.36,-228.24 523.7,-202.18 558,-186 617.81,-157.78 642.47,-184.52 705,-163 725.08,-156.09 745.6,-146.58 764.78,-136.43"/>
<polygon fill="#000000" stroke="#000000" stroke-width="1.5" points="766.65,-139.4 773.79,-131.57 763.33,-133.24 766.65,-139.4"/>
<text text-anchor="middle" x="578" y="-189.4" font-family="Arial Bold" font-size="12.00" fill="#000000">Sold In</text>
</g>
<!-- reportObj -->
<g id="node15" class="node">
<title>reportObj</title>
<path fill="none" stroke="black" d="M586,-292.5C586,-292.5 790,-292.5 790,-292.5 796,-292.5 802,-298.5 802,-304.5 802,-304.5 802,-348.5 802,-348.5 802,-354.5 796,-360.5 790,-360.5 790,-360.5 586,-360.5 586,-360.5 580,-360.5 574,-354.5 574,-348.5 574,-348.5 574,-304.5 574,-304.5 574,-298.5 580,-292.5 586,-292.5"/>
<text text-anchor="middle" x="688" y="-346.9" font-family="Arial" font-size="12.00">report_analytics:Report1</text>
<polyline fill="none" stroke="black" points="574,-339.5 802,-339.5 "/>
<text text-anchor="start" x="582" y="-325.9" font-family="Arial" font-size="12.00">Report_ID = 1</text>
<text text-anchor="start" x="582" y="-312.9" font-family="Arial" font-size="12.00">Report_Type = &quot;Monthly Sales&quot;</text>
<text text-anchor="start" x="582" y="-299.9" font-family="Arial" font-size="12.00">Generated_On = &quot;2025&#45;03&#45;31 08:00:00&quot;</text>
</g>
<!-- reportObj&#45;&gt;transaction1Obj -->
<g id="edge15" class="edge">
<title>reportObj&#45;&gt;transaction1Obj</title>
<path fill="none" stroke="#000000" stroke-width="1.5" d="M669.93,-292.26C648.92,-253.61 613.81,-189.02 587.72,-141.02"/>
<polygon fill="#000000" stroke="#000000" stroke-width="1.5" points="590.64,-139.08 582.79,-131.96 584.49,-142.42 590.64,-139.08"/>
<text text-anchor="middle" x="642.5" y="-189.4" font-family="Arial Bold" font-size="12.00" fill="#000000">Analyzes</text>
</g>
<!-- reportObj&#45;&gt;transaction2Obj -->
<g id="edge16" class="edge">
<title>reportObj&#45;&gt;transaction2Obj</title>
<path fill="none" stroke="#000000" stroke-width="1.5" d="M710.66,-292.26C737.1,-253.45 781.38,-188.48 814.14,-140.43"/>
<polygon fill="#000000" stroke="#000000" stroke-width="1.5" points="817.16,-142.2 819.9,-131.96 811.38,-138.26 817.16,-142.2"/>
<text text-anchor="middle" x="808.5" y="-189.4" font-family="Arial Bold" font-size="12.00" fill="#000000">Analyzes</text>
</g>
</g>
</svg>
