<?xml version="1.0" encoding="UTF-8" standalone="no"?>
<!DOCTYPE svg PUBLIC "-//W3C//DTD SVG 1.1//EN"
 "http://www.w3.org/Graphics/SVG/1.1/DTD/svg11.dtd">
<!-- Generated by graphviz version 2.43.0 (0)
 -->
<!-- Title: CampusTradeUserUseCaseDiagram Pages: 1 -->
<svg width="1325pt" height="1749pt"
 viewBox="0.00 0.00 1325.31 1749.00" xmlns="http://www.w3.org/2000/svg" xmlns:xlink="http://www.w3.org/1999/xlink">
<g id="graph0" class="graph" transform="scale(1 1) rotate(0) translate(4 1745)">
<title>CampusTradeUserUseCaseDiagram</title>
<polygon fill="white" stroke="transparent" points="-4,4 -4,-1745 1321.31,-1745 1321.31,4 -4,4"/>
<g id="clust1" class="cluster">
<title>cluster_actors</title>
<polygon fill="none" stroke="gray" stroke-dasharray="5,2" points="8,-862 8,-1063 185.22,-1063 185.22,-862 8,-862"/>
<text text-anchor="middle" x="96.61" y="-1047.8" font-family="Arial" font-size="14.00">Actor</text>
</g>
<g id="clust2" class="cluster">
<title>cluster_system</title>
<polygon fill="none" stroke="black" stroke-dasharray="5,2" points="270.22,-8 270.22,-1499 1309.31,-1499 1309.31,-8 270.22,-8"/>
<text text-anchor="middle" x="789.76" y="-1483.8" font-family="Arial Bold" font-size="14.00">CampusTrade System &#45; User Functions</text>
</g>
<g id="clust3" class="cluster">
<title>cluster_member_management</title>
<polygon fill="none" stroke="gray" stroke-dasharray="5,2" points="921.63,-1205 921.63,-1468 1301.31,-1468 1301.31,-1205 921.63,-1205"/>
<text text-anchor="middle" x="1111.47" y="-1452.8" font-family="Arial Bold" font-size="14.00">Member Management</text>
</g>
<g id="clust4" class="cluster">
<title>cluster_product_management</title>
<polygon fill="none" stroke="gray" stroke-dasharray="5,2" points="602.27,-241 602.27,-692 1073.06,-692 1073.06,-241 602.27,-241"/>
<text text-anchor="middle" x="837.66" y="-676.8" font-family="Arial Bold" font-size="14.00">Product Management</text>
</g>
<g id="clust5" class="cluster">
<title>cluster_transaction_management</title>
<polygon fill="none" stroke="gray" stroke-dasharray="5,2" points="575.18,-897 575.18,-1066 1071.21,-1066 1071.21,-897 575.18,-897"/>
<text text-anchor="middle" x="823.2" y="-1050.8" font-family="Arial Bold" font-size="14.00">Transaction Management</text>
</g>
<g id="clust6" class="cluster">
<title>cluster_review_feedback</title>
<polygon fill="none" stroke="gray" stroke-dasharray="5,2" points="278.22,-925 278.22,-1094 421.18,-1094 421.18,-925 278.22,-925"/>
<text text-anchor="middle" x="349.7" y="-1078.8" font-family="Arial Bold" font-size="14.00">Review &amp; Feedback</text>
</g>
<!-- user -->
<g id="node1" class="node">
<title>user</title>
<ellipse fill="lightblue" stroke="black" cx="96.61" cy="-951" rx="80.72" ry="80.72"/>
<text text-anchor="middle" x="96.61" y="-954.4" font-family="Arial Bold" font-size="12.00">User</text>
<text text-anchor="middle" x="96.61" y="-941.4" font-family="Arial Bold" font-size="12.00">(Student/Faculty)</text>
</g>
<!-- register -->
<g id="node2" class="node">
<title>register</title>
<ellipse fill="lightyellow" stroke="black" cx="1001.03" cy="-1419" rx="66.47" ry="18"/>
<text text-anchor="middle" x="1001.03" y="-1415.9" font-family="Arial" font-size="12.00">Register Account</text>
</g>
<!-- user&#45;&gt;register -->
<g id="edge1" class="edge">
<title>user&#45;&gt;register</title>
<path fill="none" stroke="black" d="M104.86,-1031.6C118.55,-1131.29 157.88,-1297.63 270.22,-1378 478.7,-1527.14 812.53,-1466.45 944.12,-1434.21"/>
<polygon fill="black" stroke="black" points="953.99,-1431.75 945.37,-1438.54 949.14,-1432.96 944.29,-1434.17 944.29,-1434.17 944.29,-1434.17 949.14,-1432.96 943.2,-1429.8 953.99,-1431.75 953.99,-1431.75"/>
</g>
<!-- login -->
<g id="node3" class="node">
<title>login</title>
<ellipse fill="lightyellow" stroke="black" cx="1264.38" cy="-1231" rx="28.87" ry="18"/>
<text text-anchor="middle" x="1264.38" y="-1227.9" font-family="Arial" font-size="12.00">Login</text>
</g>
<!-- user&#45;&gt;login -->
<g id="edge2" class="edge">
<title>user&#45;&gt;login</title>
<path fill="none" stroke="black" d="M105.81,-1031.1C128.56,-1231.94 200.83,-1741 348.7,-1741 348.7,-1741 348.7,-1741 1002.03,-1741 1220.38,-1741 1256.43,-1366.19 1262.27,-1259.2"/>
<polygon fill="black" stroke="black" points="1262.77,-1249.15 1266.76,-1259.36 1262.52,-1254.14 1262.27,-1259.14 1262.27,-1259.14 1262.27,-1259.14 1262.52,-1254.14 1257.78,-1258.91 1262.77,-1249.15 1262.77,-1249.15"/>
</g>
<!-- updateProfile -->
<g id="node4" class="node">
<title>updateProfile</title>
<ellipse fill="lightyellow" stroke="black" cx="1001.03" cy="-1325" rx="57.5" ry="18"/>
<text text-anchor="middle" x="1001.03" y="-1321.9" font-family="Arial" font-size="12.00">Update Profile</text>
</g>
<!-- user&#45;&gt;updateProfile -->
<g id="edge3" class="edge">
<title>user&#45;&gt;updateProfile</title>
<path fill="none" stroke="black" d="M112.09,-1030.27C131.97,-1113.84 176.53,-1241.7 270.22,-1303 486.84,-1444.74 822.29,-1374.34 949.13,-1340.06"/>
<polygon fill="black" stroke="black" points="958.97,-1337.36 950.51,-1344.35 954.14,-1338.68 949.32,-1340.01 949.32,-1340.01 949.32,-1340.01 954.14,-1338.68 948.13,-1335.67 958.97,-1337.36 958.97,-1337.36"/>
</g>
<!-- changePassword -->
<g id="node5" class="node">
<title>changePassword</title>
<ellipse fill="lightyellow" stroke="black" cx="1001.03" cy="-1231" rx="71.32" ry="18"/>
<text text-anchor="middle" x="1001.03" y="-1227.9" font-family="Arial" font-size="12.00">Change Password</text>
</g>
<!-- user&#45;&gt;changePassword -->
<g id="edge4" class="edge">
<title>user&#45;&gt;changePassword</title>
<path fill="none" stroke="black" d="M121.74,-1027.8C147.12,-1094.26 194.13,-1186.36 270.22,-1230 483.2,-1352.14 575.13,-1274 820.63,-1277 845.07,-1277.3 851.56,-1281.31 875.63,-1277 903.82,-1271.96 933.98,-1260.96 957.54,-1250.98"/>
<polygon fill="black" stroke="black" points="966.88,-1246.93 959.5,-1255.03 962.3,-1248.92 957.71,-1250.91 957.71,-1250.91 957.71,-1250.91 962.3,-1248.92 955.92,-1246.78 966.88,-1246.93 966.88,-1246.93"/>
</g>
<!-- listProduct -->
<g id="node6" class="node">
<title>listProduct</title>
<ellipse fill="lightgreen" stroke="black" cx="674.9" cy="-361" rx="49.5" ry="18"/>
<text text-anchor="middle" x="674.9" y="-357.9" font-family="Arial" font-size="12.00">List Product</text>
</g>
<!-- user&#45;&gt;listProduct -->
<g id="edge5" class="edge">
<title>user&#45;&gt;listProduct</title>
<path fill="none" stroke="black" d="M110.16,-871.33C129.03,-776.38 173.43,-618.5 270.22,-522 368.16,-424.35 532.81,-384 618.42,-368.95"/>
<polygon fill="black" stroke="black" points="628.46,-367.24 619.36,-373.36 623.53,-368.08 618.6,-368.92 618.6,-368.92 618.6,-368.92 623.53,-368.08 617.85,-364.49 628.46,-367.24 628.46,-367.24"/>
</g>
<!-- updateListing -->
<g id="node7" class="node">
<title>updateListing</title>
<ellipse fill="lightgreen" stroke="black" cx="674.9" cy="-267" rx="57.73" ry="18"/>
<text text-anchor="middle" x="674.9" y="-263.9" font-family="Arial" font-size="12.00">Update Listing</text>
</g>
<!-- user&#45;&gt;updateListing -->
<g id="edge6" class="edge">
<title>user&#45;&gt;updateListing</title>
<path fill="none" stroke="black" d="M101.65,-870.15C111.75,-753.57 147.05,-538.34 270.22,-411 361.88,-316.24 520.02,-283.67 608.72,-272.6"/>
<polygon fill="black" stroke="black" points="618.66,-271.41 609.26,-277.07 613.69,-272 608.73,-272.6 608.73,-272.6 608.73,-272.6 613.69,-272 608.2,-268.13 618.66,-271.41 618.66,-271.41"/>
</g>
<!-- removeListing -->
<g id="node8" class="node">
<title>removeListing</title>
<ellipse fill="lightgreen" stroke="black" cx="674.9" cy="-643" rx="61.62" ry="18"/>
<text text-anchor="middle" x="674.9" y="-639.9" font-family="Arial" font-size="12.00">Remove Listing</text>
</g>
<!-- user&#45;&gt;removeListing -->
<g id="edge7" class="edge">
<title>user&#45;&gt;removeListing</title>
<path fill="none" stroke="black" d="M146.92,-1014.66C178.03,-1049.43 221.48,-1089.15 270.22,-1108 332.8,-1132.2 361.17,-1138.01 421.18,-1108 509.8,-1063.69 628.47,-764.02 663.66,-670.69"/>
<polygon fill="black" stroke="black" points="667.26,-661.09 667.96,-672.03 665.5,-665.77 663.75,-670.45 663.75,-670.45 663.75,-670.45 665.5,-665.77 659.54,-668.87 667.26,-661.09 667.26,-661.09"/>
</g>
<!-- searchProducts -->
<g id="node9" class="node">
<title>searchProducts</title>
<ellipse fill="lightgreen" stroke="black" cx="674.9" cy="-455" rx="64.77" ry="18"/>
<text text-anchor="middle" x="674.9" y="-451.9" font-family="Arial" font-size="12.00">Search Products</text>
</g>
<!-- user&#45;&gt;searchProducts -->
<g id="edge8" class="edge">
<title>user&#45;&gt;searchProducts</title>
<path fill="none" stroke="black" d="M122.89,-874.69C149.66,-804.14 198.12,-700.47 270.22,-634 371.21,-540.9 528.56,-490.44 613.92,-468.54"/>
<polygon fill="black" stroke="black" points="623.71,-466.07 615.12,-472.88 618.86,-467.29 614.02,-468.51 614.02,-468.51 614.02,-468.51 618.86,-467.29 612.92,-464.15 623.71,-466.07 623.71,-466.07"/>
</g>
<!-- addToWishlist -->
<g id="node10" class="node">
<title>addToWishlist</title>
<ellipse fill="lightgreen" stroke="black" cx="674.9" cy="-549" rx="59.19" ry="18"/>
<text text-anchor="middle" x="674.9" y="-545.9" font-family="Arial" font-size="12.00">Add to Wishlist</text>
</g>
<!-- user&#45;&gt;addToWishlist -->
<g id="edge9" class="edge">
<title>user&#45;&gt;addToWishlist</title>
<path fill="none" stroke="black" d="M146.73,-887.28C171.29,-856.31 201.97,-818.97 231.22,-787 342.61,-665.26 531,-593.5 621.84,-564.32"/>
<polygon fill="black" stroke="black" points="631.38,-561.3 623.2,-568.61 626.61,-562.81 621.84,-564.32 621.84,-564.32 621.84,-564.32 626.61,-562.81 620.48,-560.03 631.38,-561.3 631.38,-561.3"/>
</g>
<!-- viewCategories -->
<g id="node11" class="node">
<title>viewCategories</title>
<ellipse fill="lightgreen" stroke="black" cx="1001.03" cy="-288" rx="64.04" ry="18"/>
<text text-anchor="middle" x="1001.03" y="-284.9" font-family="Arial" font-size="12.00">View Categories</text>
</g>
<!-- user&#45;&gt;viewCategories -->
<g id="edge10" class="edge">
<title>user&#45;&gt;viewCategories</title>
<path fill="none" stroke="black" d="M108.72,-871.19C131.85,-716.26 189.82,-382.92 270.22,-303 457.46,-116.87 823.25,-223.74 953.01,-270"/>
<polygon fill="black" stroke="black" points="962.66,-273.49 951.73,-274.32 957.96,-271.79 953.25,-270.09 953.25,-270.09 953.25,-270.09 957.96,-271.79 954.78,-265.86 962.66,-273.49 962.66,-273.49"/>
</g>
<!-- buyProduct -->
<g id="node12" class="node">
<title>buyProduct</title>
<ellipse fill="lightcoral" stroke="black" cx="674.9" cy="-1017" rx="50.46" ry="18"/>
<text text-anchor="middle" x="674.9" y="-1013.9" font-family="Arial" font-size="12.00">Buy Product</text>
</g>
<!-- user&#45;&gt;buyProduct -->
<g id="edge11" class="edge">
<title>user&#45;&gt;buyProduct</title>
<path fill="none" stroke="black" d="M172.95,-924.18C262.69,-896.98 414.8,-866.17 529.18,-922 555.74,-934.96 551.23,-952.7 575.18,-970 591.8,-982 611.97,-992.24 629.73,-1000.07"/>
<polygon fill="black" stroke="black" points="639.32,-1004.17 628.35,-1004.38 634.72,-1002.2 630.12,-1000.24 630.12,-1000.24 630.12,-1000.24 634.72,-1002.2 631.89,-996.1 639.32,-1004.17 639.32,-1004.17"/>
</g>
<!-- viewTransactionHistory -->
<g id="node13" class="node">
<title>viewTransactionHistory</title>
<ellipse fill="lightcoral" stroke="black" cx="674.9" cy="-923" rx="91.95" ry="18"/>
<text text-anchor="middle" x="674.9" y="-919.9" font-family="Arial" font-size="12.00">View Transaction History</text>
</g>
<!-- user&#45;&gt;viewTransactionHistory -->
<g id="edge12" class="edge">
<title>user&#45;&gt;viewTransactionHistory</title>
<path fill="none" stroke="black" d="M139.2,-882.3C162.09,-851.31 193.51,-817.91 231.22,-801 352.05,-746.81 404.79,-755.57 529.18,-801 581.38,-820.07 627.76,-867.18 653.24,-896.96"/>
<polygon fill="black" stroke="black" points="659.86,-904.87 649.99,-900.09 656.65,-901.03 653.44,-897.2 653.44,-897.2 653.44,-897.2 656.65,-901.03 656.89,-894.31 659.86,-904.87 659.86,-904.87"/>
</g>
<!-- manageCredits -->
<g id="node14" class="node">
<title>manageCredits</title>
<ellipse fill="lightcoral" stroke="black" cx="1001.03" cy="-1017" rx="62.35" ry="18"/>
<text text-anchor="middle" x="1001.03" y="-1013.9" font-family="Arial" font-size="12.00">Manage Credits</text>
</g>
<!-- user&#45;&gt;manageCredits -->
<g id="edge13" class="edge">
<title>user&#45;&gt;manageCredits</title>
<path fill="none" stroke="black" d="M132.38,-1023.26C161.27,-1073.66 207.74,-1136.3 270.22,-1162 498.23,-1255.78 574.57,-1215.64 820.63,-1231 845.02,-1232.52 854.44,-1243.19 875.63,-1231 911.85,-1210.16 964.83,-1097.49 988.2,-1044.54"/>
<polygon fill="black" stroke="black" points="992.34,-1035.08 992.46,-1046.05 990.34,-1039.66 988.33,-1044.24 988.33,-1044.24 988.33,-1044.24 990.34,-1039.66 984.21,-1042.44 992.34,-1035.08 992.34,-1035.08"/>
</g>
<!-- rateUser -->
<g id="node15" class="node">
<title>rateUser</title>
<ellipse fill="lavender" stroke="black" cx="349.7" cy="-951" rx="43.91" ry="18"/>
<text text-anchor="middle" x="349.7" y="-947.9" font-family="Arial" font-size="12.00">Rate User</text>
</g>
<!-- user&#45;&gt;rateUser -->
<g id="edge14" class="edge">
<title>user&#45;&gt;rateUser</title>
<path fill="none" stroke="black" d="M177.4,-951C215.92,-951 261.1,-951 295.39,-951"/>
<polygon fill="black" stroke="black" points="305.66,-951 295.66,-955.5 300.66,-951 295.66,-951 295.66,-951 295.66,-951 300.66,-951 295.66,-946.5 305.66,-951 305.66,-951"/>
</g>
<!-- fileComplaint -->
<g id="node16" class="node">
<title>fileComplaint</title>
<ellipse fill="lavender" stroke="black" cx="349.7" cy="-1045" rx="58.46" ry="18"/>
<text text-anchor="middle" x="349.7" y="-1041.9" font-family="Arial" font-size="12.00">File Complaint</text>
</g>
<!-- user&#45;&gt;fileComplaint -->
<g id="edge15" class="edge">
<title>user&#45;&gt;fileComplaint</title>
<path fill="none" stroke="black" d="M172.27,-978.95C214.47,-994.75 265.9,-1014 302.32,-1027.64"/>
<polygon fill="black" stroke="black" points="311.7,-1031.15 300.76,-1031.86 307.02,-1029.4 302.34,-1027.64 302.34,-1027.64 302.34,-1027.64 307.02,-1029.4 303.92,-1023.43 311.7,-1031.15 311.7,-1031.15"/>
</g>
<!-- register&#45;&gt;login -->
<g id="edge19" class="edge">
<title>register&#45;&gt;login</title>
<path fill="none" stroke="black" stroke-dasharray="5,2" d="M1029.93,-1402.72C1065.95,-1381.3 1130.11,-1341.82 1181.44,-1303 1202.21,-1287.3 1224.31,-1267.69 1240.31,-1252.9"/>
<polygon fill="black" stroke="black" points="1247.65,-1246.07 1243.4,-1256.18 1243.99,-1249.48 1240.33,-1252.89 1240.33,-1252.89 1240.33,-1252.89 1243.99,-1249.48 1237.26,-1249.59 1247.65,-1246.07 1247.65,-1246.07"/>
<text text-anchor="middle" x="1153.94" y="-1343" font-family="Arial" font-size="10.00">&lt;&lt;extend&gt;&gt;</text>
</g>
<!-- updateProfile&#45;&gt;login -->
<g id="edge20" class="edge">
<title>updateProfile&#45;&gt;login</title>
<path fill="none" stroke="black" stroke-dasharray="5,2" d="M1039.48,-1311.53C1090.31,-1293.25 1180.43,-1260.83 1229.4,-1243.22"/>
<polygon fill="black" stroke="black" points="1238.91,-1239.8 1231.03,-1247.42 1234.21,-1241.49 1229.5,-1243.18 1229.5,-1243.18 1229.5,-1243.18 1234.21,-1241.49 1227.98,-1238.95 1238.91,-1239.8 1238.91,-1239.8"/>
<text text-anchor="middle" x="1153.94" y="-1281" font-family="Arial" font-size="10.00">&lt;&lt;include&gt;&gt;</text>
</g>
<!-- changePassword&#45;&gt;login -->
<g id="edge21" class="edge">
<title>changePassword&#45;&gt;login</title>
<path fill="none" stroke="black" stroke-dasharray="5,2" d="M1072.76,-1231C1121.88,-1231 1185.43,-1231 1225.31,-1231"/>
<polygon fill="black" stroke="black" points="1235.41,-1231 1225.41,-1235.5 1230.41,-1231 1225.41,-1231 1225.41,-1231 1225.41,-1231 1230.41,-1231 1225.41,-1226.5 1235.41,-1231 1235.41,-1231"/>
<text text-anchor="middle" x="1153.94" y="-1234" font-family="Arial" font-size="10.00">&lt;&lt;include&gt;&gt;</text>
</g>
<!-- listProduct&#45;&gt;login -->
<g id="edge22" class="edge">
<title>listProduct&#45;&gt;login</title>
<path fill="none" stroke="black" stroke-dasharray="5,2" d="M704.58,-346.32C722.46,-337.12 745.94,-324.96 766.63,-314 835.86,-277.31 845.68,-249.26 921.63,-230 1041.56,-199.59 1126.72,-219.03 1181.44,-330 1259.74,-488.77 1263.68,-1066.5 1263.5,-1202.29"/>
<polygon fill="black" stroke="black" points="1263.48,-1212.67 1259,-1202.66 1263.49,-1207.67 1263.5,-1202.67 1263.5,-1202.67 1263.5,-1202.67 1263.49,-1207.67 1268,-1202.68 1263.48,-1212.67 1263.48,-1212.67"/>
<text text-anchor="middle" x="1001.03" y="-233" font-family="Arial" font-size="10.00">&lt;&lt;include&gt;&gt;</text>
</g>
<!-- listProduct&#45;&gt;viewCategories -->
<g id="edge17" class="edge">
<title>listProduct&#45;&gt;viewCategories</title>
<path fill="none" stroke="black" stroke-dasharray="5,2" d="M717.28,-351.68C773.82,-338.95 875.57,-316.03 940.35,-301.44"/>
<polygon fill="black" stroke="black" points="950.42,-299.17 941.65,-305.76 945.54,-300.27 940.66,-301.37 940.66,-301.37 940.66,-301.37 945.54,-300.27 939.68,-296.98 950.42,-299.17 950.42,-299.17"/>
<text text-anchor="middle" x="848.13" y="-329" font-family="Arial" font-size="10.00">&lt;&lt;include&gt;&gt;</text>
</g>
<!-- updateListing&#45;&gt;login -->
<g id="edge28" class="edge">
<title>updateListing&#45;&gt;login</title>
<path fill="none" stroke="black" stroke-dasharray="5,2" d="M705.83,-251.71C797.58,-207.14 1075.09,-89.81 1181.44,-243 1237.58,-323.86 1258.82,-1049.23 1262.7,-1202.6"/>
<polygon fill="black" stroke="black" points="1262.96,-1213.02 1258.21,-1203.13 1262.83,-1208.02 1262.71,-1203.02 1262.71,-1203.02 1262.71,-1203.02 1262.83,-1208.02 1267.21,-1202.91 1262.96,-1213.02 1262.96,-1213.02"/>
<text text-anchor="middle" x="1001.03" y="-178" font-family="Arial" font-size="10.00">&lt;&lt;include&gt;&gt;</text>
</g>
<!-- removeListing&#45;&gt;login -->
<g id="edge29" class="edge">
<title>removeListing&#45;&gt;login</title>
<path fill="none" stroke="black" stroke-dasharray="5,2" d="M724.05,-654.02C825.15,-679.74 1060.22,-753.55 1181.44,-907 1252.7,-997.19 1262.74,-1141.82 1263.63,-1202.62"/>
<polygon fill="black" stroke="black" points="1263.71,-1212.64 1259.13,-1202.67 1263.67,-1207.64 1263.63,-1202.64 1263.63,-1202.64 1263.63,-1202.64 1263.67,-1207.64 1268.13,-1202.6 1263.71,-1212.64 1263.71,-1212.64"/>
<text text-anchor="middle" x="1001.03" y="-806" font-family="Arial" font-size="10.00">&lt;&lt;include&gt;&gt;</text>
</g>
<!-- searchProducts&#45;&gt;login -->
<g id="edge30" class="edge">
<title>searchProducts&#45;&gt;login</title>
<path fill="none" stroke="black" stroke-dasharray="5,2" d="M731.28,-463.98C812.59,-479.33 966.21,-516.74 1073.06,-594 1137.11,-640.31 1149.97,-662.49 1181.44,-735 1253.65,-901.35 1262.62,-1124.42 1263.44,-1202.54"/>
<polygon fill="black" stroke="black" points="1263.5,-1213 1258.94,-1203.02 1263.47,-1208 1263.44,-1203 1263.44,-1203 1263.44,-1203 1263.47,-1208 1267.94,-1202.97 1263.5,-1213 1263.5,-1213"/>
<text text-anchor="middle" x="1001.03" y="-597" font-family="Arial" font-size="10.00">&lt;&lt;include&gt;&gt;</text>
</g>
<!-- addToWishlist&#45;&gt;login -->
<g id="edge27" class="edge">
<title>addToWishlist&#45;&gt;login</title>
<path fill="none" stroke="black" stroke-dasharray="5,2" d="M725.24,-558.6C804.67,-575.92 963.13,-618.33 1073.06,-699 1242.34,-823.22 1261.59,-1111.64 1263.36,-1202.83"/>
<polygon fill="black" stroke="black" points="1263.49,-1212.95 1258.86,-1203.01 1263.43,-1207.95 1263.36,-1202.95 1263.36,-1202.95 1263.36,-1202.95 1263.43,-1207.95 1267.86,-1202.89 1263.49,-1212.95 1263.49,-1212.95"/>
<text text-anchor="middle" x="1001.03" y="-702" font-family="Arial" font-size="10.00">&lt;&lt;include&gt;&gt;</text>
</g>
<!-- viewCategories&#45;&gt;login -->
<g id="edge31" class="edge">
<title>viewCategories&#45;&gt;login</title>
<path fill="none" stroke="black" stroke-dasharray="5,2" d="M1044.9,-301.14C1087.28,-316.56 1150.18,-346.51 1181.44,-396 1225.47,-465.69 1255.7,-1065.03 1262.11,-1202.83"/>
<polygon fill="black" stroke="black" points="1262.57,-1212.99 1257.62,-1203.21 1262.34,-1208 1262.11,-1203 1262.11,-1203 1262.11,-1203 1262.34,-1208 1266.61,-1202.8 1262.57,-1212.99 1262.57,-1212.99"/>
<text text-anchor="middle" x="1153.94" y="-399" font-family="Arial" font-size="10.00">&lt;&lt;include&gt;&gt;</text>
</g>
<!-- buyProduct&#45;&gt;login -->
<g id="edge23" class="edge">
<title>buyProduct&#45;&gt;login</title>
<path fill="none" stroke="black" stroke-dasharray="5,2" d="M708.12,-1003.44C776.48,-976.6 940.59,-922.33 1073.06,-959 1127.19,-973.99 1145.1,-981.17 1181.44,-1024 1227.09,-1077.79 1249.3,-1160.11 1258.28,-1202.93"/>
<polygon fill="black" stroke="black" points="1260.29,-1212.92 1253.91,-1204 1259.31,-1208.02 1258.32,-1203.12 1258.32,-1203.12 1258.32,-1203.12 1259.31,-1208.02 1262.73,-1202.23 1260.29,-1212.92 1260.29,-1212.92"/>
<text text-anchor="middle" x="1001.03" y="-962" font-family="Arial" font-size="10.00">&lt;&lt;include&gt;&gt;</text>
</g>
<!-- buyProduct&#45;&gt;manageCredits -->
<g id="edge16" class="edge">
<title>buyProduct&#45;&gt;manageCredits</title>
<path fill="none" stroke="black" stroke-dasharray="5,2" d="M725.49,-1017C779.75,-1017 867.2,-1017 928.8,-1017"/>
<polygon fill="black" stroke="black" points="938.84,-1017 928.84,-1021.5 933.84,-1017 928.84,-1017 928.84,-1017 928.84,-1017 933.84,-1017 928.84,-1012.5 938.84,-1017 938.84,-1017"/>
<text text-anchor="middle" x="848.13" y="-1020" font-family="Arial" font-size="10.00">&lt;&lt;include&gt;&gt;</text>
</g>
<!-- viewTransactionHistory&#45;&gt;login -->
<g id="edge26" class="edge">
<title>viewTransactionHistory&#45;&gt;login</title>
<path fill="none" stroke="black" stroke-dasharray="5,2" d="M726.05,-907.94C828.84,-880.53 1063.66,-836.29 1181.44,-963 1245.28,-1031.68 1259.44,-1148.84 1262.53,-1202.56"/>
<polygon fill="black" stroke="black" points="1263.03,-1212.72 1258.05,-1202.96 1262.79,-1207.73 1262.54,-1202.74 1262.54,-1202.74 1262.54,-1202.74 1262.79,-1207.73 1267.04,-1202.52 1263.03,-1212.72 1263.03,-1212.72"/>
<text text-anchor="middle" x="1001.03" y="-898" font-family="Arial" font-size="10.00">&lt;&lt;include&gt;&gt;</text>
</g>
<!-- manageCredits&#45;&gt;login -->
<g id="edge32" class="edge">
<title>manageCredits&#45;&gt;login</title>
<path fill="none" stroke="black" stroke-dasharray="5,2" d="M1061.39,-1021.67C1099.35,-1027.39 1147.63,-1040.04 1181.44,-1068 1224.21,-1103.37 1246.81,-1166.67 1256.82,-1203.11"/>
<polygon fill="black" stroke="black" points="1259.43,-1213.06 1252.54,-1204.52 1258.16,-1208.22 1256.89,-1203.39 1256.89,-1203.39 1256.89,-1203.39 1258.16,-1208.22 1261.25,-1202.25 1259.43,-1213.06 1259.43,-1213.06"/>
<text text-anchor="middle" x="1153.94" y="-1071" font-family="Arial" font-size="10.00">&lt;&lt;include&gt;&gt;</text>
</g>
<!-- rateUser&#45;&gt;login -->
<g id="edge25" class="edge">
<title>rateUser&#45;&gt;login</title>
<path fill="none" stroke="black" stroke-dasharray="5,2" d="M374.31,-966.08C422.97,-996.91 533.36,-1065.46 575.18,-1080 786.49,-1153.46 853.62,-1110.47 1073.06,-1154 1121.75,-1163.66 1135.64,-1161.85 1181.44,-1181 1200.85,-1189.11 1221.04,-1201.38 1236.52,-1211.74"/>
<polygon fill="black" stroke="black" points="1245.05,-1217.56 1234.25,-1215.64 1240.92,-1214.74 1236.79,-1211.92 1236.79,-1211.92 1236.79,-1211.92 1240.92,-1214.74 1239.33,-1208.21 1245.05,-1217.56 1245.05,-1217.56"/>
<text text-anchor="middle" x="848.13" y="-1133" font-family="Arial" font-size="10.00">&lt;&lt;include&gt;&gt;</text>
</g>
<!-- rateUser&#45;&gt;viewTransactionHistory -->
<g id="edge18" class="edge">
<title>rateUser&#45;&gt;viewTransactionHistory</title>
<path fill="none" stroke="black" stroke-dasharray="5,2" d="M392.62,-947.37C439.95,-943.27 518.43,-936.47 580.48,-931.09"/>
<polygon fill="black" stroke="black" points="590.69,-930.21 581.11,-935.56 585.7,-930.64 580.72,-931.07 580.72,-931.07 580.72,-931.07 585.7,-930.64 580.33,-926.59 590.69,-930.21 590.69,-930.21"/>
<text text-anchor="middle" x="502.18" y="-942" font-family="Arial" font-size="10.00">&lt;&lt;extend&gt;&gt;</text>
</g>
<!-- fileComplaint&#45;&gt;login -->
<g id="edge24" class="edge">
<title>fileComplaint&#45;&gt;login</title>
<path fill="none" stroke="black" stroke-dasharray="5,2" d="M371.73,-1061.95C395.38,-1080.03 435.68,-1107.95 475.18,-1122 726.89,-1211.5 809.76,-1138.78 1073.06,-1184 1127.63,-1193.37 1189.71,-1209.82 1227.71,-1220.56"/>
<polygon fill="black" stroke="black" points="1237.77,-1223.43 1226.92,-1225.01 1232.96,-1222.05 1228.15,-1220.68 1228.15,-1220.68 1228.15,-1220.68 1232.96,-1222.05 1229.38,-1216.36 1237.77,-1223.43 1237.77,-1223.43"/>
<text text-anchor="middle" x="848.13" y="-1171" font-family="Arial" font-size="10.00">&lt;&lt;include&gt;&gt;</text>
</g>
</g>
</svg>
